/* XPM */
static char * brush_flipx_xpm[] = {
"16 16 26 1",
" 	c None",
".	c #C9E5F9",
"+	c #CAE3FB",
"@	c #CAE2FF",
"#	c #47E0FF",
"$	c #CAE1FF",
"%	c #45DEFF",
"&	c #46DEFF",
"*	c #C9DEFF",
"=	c #44DCFF",
"-	c #C9DBFF",
";	c #43DBFF",
">	c #43DAFF",
",	c #C9D9FF",
"'	c #42D9FF",
")	c #41D6FF",
"!	c #40D7FF",
"~	c #C8D6FF",
"{	c #41D7FF",
"]	c #3FD4FF",
"^	c #C8D4FF",
"/	c #3ED5FF",
"(	c #3FD5FF",
"_	c #C7D1FF",
":	c #C7D0FF",
"<	c #C7CDFF",
"                ",
"                ",
"       .        ",
"       +        ",
"       @        ",
" #   # $ #   #  ",
"  % &  *  % %   ",
"   =   -   ;    ",
"   >   ,   '    ",
"  ) !  ~  { !   ",
" ]   ] ^ /   (  ",
"       _        ",
"       :        ",
"       <        ",
"                ",
"                "};
