/* XPM */
static char * brush_flipz_xpm[] = {
"16 16 23 1",
" 	c None",
".	c #44E5FF",
"+	c #46E3FF",
"@	c #48E2FF",
"#	c #47E0FF",
"$	c #47E1FF",
"%	c #46DEFF",
"&	c #45DEFF",
"*	c #43DBFF",
"=	c #44DBFF",
"-	c #43DAFF",
";	c #42D9FF",
">	c #41D6FF",
",	c #40D6FF",
"'	c #40D7FF",
")	c #3FD4FF",
"!	c #3ED4FF",
"~	c #3FD5FF",
"{	c #3DD2FF",
"]	c #3CD2FF",
"^	c #3DD1FF",
"/	c #3CD0FF",
"(	c #39CDFF",
"                ",
"                ",
"       .        ",
"       +        ",
"       @        ",
" #$### $ #$###  ",
"     % & &      ",
"    *  *  =     ",
"   -   ;   ;    ",
"  >    ,    '   ",
" )     !     ~  ",
" {{{]{ ^ {{{^{  ",
"       /        ",
"       (        ",
"                ",
"                "};
