/* XPM */
static char * brush_rotatez_xpm[] = {
"16 16 26 1",
" 	c None",
".	c #41E5FF",
"+	c #42E5FF",
"@	c #43E4FF",
"#	c #44E5FF",
"$	c #45E3FF",
"%	c #48E3FF",
"&	c #47E0FF",
"*	c #46DEFF",
"=	c #45DEFF",
"-	c #43DBFF",
";	c #44DBFF",
">	c #42D9FF",
",	c #42DAFF",
"'	c #40D6FF",
")	c #40D7FF",
"!	c #3FD4FF",
"~	c #3FD5FF",
"{	c #3DD2FF",
"]	c #3BCFFF",
"^	c #3CD0FF",
"/	c #3BD0FF",
"(	c #3CCFFF",
"_	c #3ACDFF",
":	c #39CDFF",
"<	c #38CAFF",
"                ",
" ...++          ",
"      @#@       ",
"         $      ",
"          %     ",
"           &    ",
"   ***==    =   ",
"       -    ;   ",
"      >     ,   ",
"     '       )  ",
"    !        ~  ",
"   {         {  ",
"   ]]]]^   /^](]",
"            _:_ ",
"             <  ",
"                "};
