/* XPM */
static char *brush_rotatex[] = {
/* columns rows colors chars-per-pixel */
"16 16 3 1 ",
"  c None",
". c black",
"X c #C00000",
/* pixels */
"                ",
" XXXXX          ",
"      XXX       ",
"         X      ",
"          X     ",
"           X    ",
"   .   .    X   ",
"    . .     X   ",
"     .      X   ",
"     .       X  ",
"    . .      X  ",
"   .   .     X  ",
"           XXXXX",
"            XXX ",
"             X  ",
"                "
};
