/* XPM */
static char * brush_rotatex_xpm[] = {
"16 16 30 1",
" 	c None",
".	c #C8E5F6",
"+	c #C9E5F5",
"@	c #C9E5F6",
"#	c #C9E4F8",
"$	c #C9E5F9",
"%	c #C9E4F9",
"&	c #C9E3FC",
"*	c #CAE3FF",
"=	c #CAE0FF",
"-	c #46DEFF",
";	c #45DEFF",
">	c #C9DEFF",
",	c #43DBFF",
"'	c #44DBFF",
")	c #C9DBFF",
"!	c #42D9FF",
"~	c #C9DAFF",
"{	c #40D6FF",
"]	c #C8D7FF",
"^	c #3FD4FF",
"/	c #3ED5FF",
"(	c #C8D5FF",
"_	c #3DD2FF",
":	c #3DD1FF",
"<	c #C7D2FF",
"[	c #C7D0FF",
"}	c #C7CFFF",
"|	c #C7CDFF",
"1	c #C6CAFF",
"                ",
" ...+@          ",
"      #$%       ",
"         &      ",
"          *     ",
"           =    ",
"   -   ;    >   ",
"    , '     )   ",
"     !      ~   ",
"     {       ]  ",
"    ^ /      (  ",
"   _   :     <  ",
"           [[}}}",
"            ||| ",
"             1  ",
"                "};
