/* XPM */
static char * brush_rotatey_xpm[] = {
"16 16 32 1",
" 	c None",
".	c #41FFF6",
"+	c #42FFF5",
"@	c #42FFF6",
"#	c #43FFF8",
"$	c #44FFF9",
"%	c #43FFF9",
"&	c #45FFFC",
"*	c #48FFFF",
"=	c #47FFFF",
"-	c #46DEFF",
";	c #45DEFF",
">	c #45FFFF",
",	c #44DCFF",
"'	c #43DBFF",
")	c #44FFFF",
"!	c #42D9FF",
"~	c #42FFFF",
"{	c #40D7FF",
"]	c #40FFFF",
"^	c #3FD4FF",
"/	c #3FFFFF",
"(	c #3DD2FF",
"_	c #3DFFFF",
":	c #3BCFFF",
"<	c #3BFFFF",
"[	c #3CFFFF",
"}	c #3ACDFF",
"|	c #3AFFFF",
"1	c #39FFFF",
"2	c #38CAFF",
"3	c #38FFFF",
"                ",
" ...+@          ",
"      #$%       ",
"         &      ",
"          *     ",
"           =    ",
"   -   ;    >   ",
"   ,   '    )   ",
"    ! !     ~   ",
"    { {      ]  ",
"     ^       /  ",
"     (       _  ",
"     :     <[<[<",
"     }      |1| ",
"     2       3  ",
"                "};
