/* XPM */
static char *brush_flipx[] = {
/* columns rows colors chars-per-pixel */
"16 16 3 1 ",
"  c None",
". c black",
"X c #C00000",
/* pixels */
"                ",
"                ",
"       X        ",
"       X        ",
"       X        ",
" .   . X .   .  ",
"  . .  X  . .   ",
"   .   X   .    ",
"   .   X   .    ",
"  . .  X  . .   ",
" .   . X .   .  ",
"       X        ",
"       X        ",
"       X        ",
"                ",
"                "
};
