/* XPM */
static char * brush_flipy_xpm[] = {
"16 16 29 1",
" 	c None",
".	c #44FFF9",
"+	c #46FFFB",
"@	c #48FFFF",
"#	c #47E0FF",
"$	c #47FFFF",
"%	c #45DEFF",
"&	c #46DEFF",
"*	c #45FFFF",
"=	c #46DDFF",
"-	c #43DBFF",
";	c #43FFFF",
">	c #44DBFF",
",	c #42D9FF",
"'	c #42FFFF",
")	c #43D9FF",
"!	c #42DAFF",
"~	c #40D7FF",
"{	c #40FFFF",
"]	c #41D7FF",
"^	c #3FD4FF",
"/	c #3EFFFF",
"(	c #3DD2FF",
"_	c #3DFFFF",
":	c #3BCFFF",
"<	c #3CFFFF",
"[	c #3BD0FF",
"}	c #39CDFF",
"|	c #39FFFF",
"                ",
"                ",
"       .        ",
"       +        ",
"       @        ",
" #   # $ #   #  ",
" %   & * %   =  ",
"  - -  ;  > >   ",
"  , ,  '  ) !   ",
"   ~   {   ]    ",
"   ^   /   ^    ",
"   (   _   (    ",
"   :   <   [    ",
"   }   |   }    ",
"                ",
"                "};
