/* XPM */
static char * cap_ibevel_xpm[] = {
"24 24 66 1",
" 	c None",
".	c #C4E780",
"+	c #C5E780",
"@	c #C4E680",
"#	c #C1E580",
"$	c #C2E580",
"%	c #C2E680",
"&	c #BFE580",
"*	c #C0E480",
"=	c #C0E580",
"-	c #BEE480",
";	c #BDE480",
">	c #41E5F6",
",	c #42E5F6",
"'	c #BBE380",
")	c #BCE380",
"!	c #BBE480",
"~	c #43E4F9",
"{	c #44E4F9",
"]	c #B9E280",
"^	c #BAE280",
"/	c #B9E380",
"(	c #BAE380",
"_	c #46E3FB",
":	c #B7E180",
"<	c #B8E180",
"[	c #B7E280",
"}	c #48E2FE",
"|	c #B8E080",
"1	c #B8DF80",
"2	c #47E0FF",
"3	c #B9DC80",
"4	c #B9DD80",
"5	c #BADD80",
"6	c #46DEFF",
"7	c #BCDA80",
"8	c #BBDA80",
"9	c #44DCFF",
"0	c #BDD880",
"a	c #43DAFF",
"b	c #BFD680",
"c	c #BED580",
"d	c #41D6FF",
"e	c #C0D380",
"f	c #C0D480",
"g	c #3FD4FF",
"h	c #C2D180",
"i	c #3DD2FF",
"j	c #C4CF80",
"k	c #C4CE80",
"l	c #C3CE80",
"m	c #3BCFFF",
"n	c #C6CC80",
"o	c #C5CC80",
"p	c #39CDFF",
"q	c #C7C980",
"r	c #C8CA80",
"s	c #37CAFF",
"t	c #C9C780",
"u	c #CAC780",
"v	c #35C8FF",
"w	c #CBC480",
"x	c #CBC580",
"y	c #34C5FF",
"z	c #CDC280",
"A	c #32C3FF",
"                        ",
"                        ",
"  .+.@@@@@@@.....@@...  ",
"  #$%%%$%$$%%#%#$%#%##  ",
"  &*&&==*==&&=&=&==*=&  ",
"  ------;;---;-->,>>>>  ",
"  '')'))'')!)~~{        ",
"  ]^/(]]^]/__           ",
"  :::::<:[}             ",
"  |1|1|112              ",
"  3455546               ",
"  788779                ",
"  00000a                ",
"  bbbcd                 ",
"  efeeg                 ",
"  hhhhi                 ",
"  jklm                  ",
"  noop                  ",
"  qqrs                  ",
"  tutv                  ",
"  wxwy                  ",
"  zzzA                  ",
"                        ",
"                        "};
