/* XPM */
static char * cap_bevel_xpm[] = {
"24 24 68 1",
" 	c None",
".	c #3FE6F3",
"+	c #40E6F4",
"@	c #3FE5F3",
"#	c #41E5F6",
"$	c #42E5F6",
"%	c #BEE480",
"&	c #BDE480",
"*	c #43E4F8",
"=	c #44E5F9",
"-	c #BCE380",
";	c #BBE380",
">	c #46E3FC",
",	c #B9E380",
"'	c #B9E280",
")	c #BAE280",
"!	c #48E2FE",
"~	c #B7E280",
"{	c #B7E180",
"]	c #47E0FF",
"^	c #B8DF80",
"/	c #B8E080",
"(	c #45DEFF",
"_	c #B9DD80",
":	c #BADD80",
"<	c #B9DC80",
"[	c #BADC80",
"}	c #43DBFF",
"|	c #BBDB80",
"1	c #BCDA80",
"2	c #BBDA80",
"3	c #BCDB80",
"4	c #42D9FF",
"5	c #BDD880",
"6	c #BCD980",
"7	c #BDD980",
"8	c #BCD880",
"9	c #41D6FF",
"0	c #BED580",
"a	c #BFD680",
"b	c #BFD580",
"c	c #BED680",
"d	c #3FD4FF",
"e	c #C0D380",
"f	c #C1D480",
"g	c #C1D380",
"h	c #C0D480",
"i	c #3DD2FF",
"j	c #C2D180",
"k	c #C3D180",
"l	c #C2D080",
"m	c #3CCFFF",
"n	c #C4CE80",
"o	c #C3CF80",
"p	c #C4CF80",
"q	c #C3CE80",
"r	c #3ACDFF",
"s	c #C6CC80",
"t	c #C5CC80",
"u	c #37CBFF",
"v	c #C8C980",
"w	c #C7C980",
"x	c #C7CA80",
"y	c #36C8FF",
"z	c #CAC780",
"A	c #CAC680",
"B	c #C9C780",
"C	c #C9C680",
"                        ",
"                        ",
"                        ",
"                        ",
"               .+..@    ",
"            #$#%%&%%    ",
"          *=---;;-;-    ",
"         >,''),,''''    ",
"        !~{{{~~~~{{{    ",
"       ]^^^/^^/^^^^^    ",
"      (___::_::::<[[    ",
"      }|112122212213    ",
"     456555557857576    ",
"     90aababacccaaaa    ",
"     deeeefgffheehgg    ",
"    ijjjkjjlljjjljlj    ",
"    mnnnnnnopppponqn    ",
"    rsssstssstsststt    ",
"    uvwvvwwvwxwwvwwx    ",
"    yzABBBCBBzBBBzCC    ",
"                        ",
"                        ",
"                        ",
"                        "};
