/* XPM */
static char * cap_iendcap_xpm[] = {
"24 24 76 1",
" 	c None",
".	c #C4E780",
"+	c #C5E780",
"@	c #C4E680",
"#	c #C1E580",
"$	c #C2E580",
"%	c #C2E680",
"&	c #BFE580",
"*	c #C0E480",
"=	c #C0E580",
"-	c #BEE480",
";	c #BDE480",
">	c #BBE380",
",	c #BCE380",
"'	c #44E4F9",
")	c #43E4F8",
"!	c #44E5F9",
"~	c #43E4F9",
"{	c #B9E280",
"]	c #BAE280",
"^	c #B9E380",
"/	c #BAE380",
"(	c #46E3FB",
"_	c #45E3FC",
":	c #46E4FC",
"<	c #46E3FC",
"[	c #B7E180",
"}	c #48E2FE",
"|	c #B8E280",
"1	c #B8E080",
"2	c #B8DF80",
"3	c #47E0FF",
"4	c #B9DC80",
"5	c #B9DD80",
"6	c #BADD80",
"7	c #45DEFF",
"8	c #45DDFF",
"9	c #BADC80",
"0	c #BCDA80",
"a	c #BBDA80",
"b	c #44DBFF",
"c	c #43DCFF",
"d	c #BDD880",
"e	c #42D9FF",
"f	c #43DAFF",
"g	c #BFD680",
"h	c #40D7FF",
"i	c #C0D380",
"j	c #C0D480",
"k	c #3FD4FF",
"l	c #3ED4FF",
"m	c #C1D380",
"n	c #C2D180",
"o	c #3DD2FF",
"p	c #C4CF80",
"q	c #C4CE80",
"r	c #3CCFFF",
"s	c #3BCFFF",
"t	c #C3CF80",
"u	c #C6CC80",
"v	c #C5CC80",
"w	c #3ACDFF",
"x	c #C7C980",
"y	c #37CBFF",
"z	c #38CBFF",
"A	c #C8C980",
"B	c #C9C780",
"C	c #CAC780",
"D	c #36C8FF",
"E	c #36C7FF",
"F	c #CBC480",
"G	c #CBC580",
"H	c #34C5FF",
"I	c #CDC280",
"J	c #32C3FF",
"K	c #CDC180",
"                        ",
"                        ",
"  .+.@@@@@@@.....@@...  ",
"  #$%%%$%$$%%#%#$%#%##  ",
"  &*&&==*==&&=&=&==*=&  ",
"  ------;;---;---;----  ",
"  >>,>,,>')!~~~>>,>,>>  ",
"  {]^/{(_      :<{{{{{  ",
"  [[[[}          }[[[|  ",
"  1213            3212  ",
"  4567            8966  ",
"  0ab              ca0  ",
"  dde              fdd  ",
"  ggh              hgg  ",
"  ijk              lmm  ",
"  nno              onn  ",
"  pqr              sqt  ",
"  uvw              wuu  ",
"  xxy              zAx  ",
"  BCD              EBB  ",
"  FGH              HFF  ",
"  IIJ              JKI  ",
"                        ",
"                        "};
