/* XPM */
static char * cap_curve_xpm[] = {
"16 16 25 1",
" 	c None",
".	c #48E2FE",
"+	c #48E2FF",
"@	c #48E3FE",
"#	c #47E0FF",
"$	c #B8DF80",
"%	c #B8E080",
"&	c #47E1FF",
"*	c #46DEFF",
"=	c #B9DD80",
"-	c #BADD80",
";	c #45DEFF",
">	c #43DBFF",
",	c #BCDA80",
"'	c #BBDA80",
")	c #44DBFF",
"!	c #42D9FF",
"~	c #42DAFF",
"{	c #40D7FF",
"]	c #41D7FF",
"^	c #3FD4FF",
"/	c #3FD5FF",
"(	c #3ED5FF",
"_	c #3DD2FF",
":	c #3DD1FF",
"                ",
"     .++..@     ",
"   ##$%%$$$#&   ",
"  #$$$%%$$$$%&  ",
" *==----==----; ",
" *==----==----; ",
" >>,'',,''''')> ",
" > >)',,''')) > ",
" !   !!!!!~   ! ",
" !            ! ",
" {            ] ",
" {            ] ",
"  ^          /  ",
"   ^(      (/   ",
"     _::::_     ",
"                "};
