/* XPM */
static char * cap_endcap_xpm[] = {
"24 24 78 1",
" 	c None",
".	c #3FE6F3",
"+	c #40E6F3",
"@	c #41E5F6",
"#	c #42E5F5",
"$	c #BDE480",
"%	c #BEE480",
"&	c #43E4F9",
"*	c #BCE380",
"=	c #BBE380",
"-	c #BBE480",
";	c #43E4F8",
">	c #45E4FB",
",	c #B9E280",
"'	c #BAE280",
")	c #B9E380",
"!	c #46E3FB",
"~	c #48E2FE",
"{	c #B7E180",
"]	c #B8E180",
"^	c #B7E280",
"/	c #48E2FF",
"(	c #47E1FF",
"_	c #B8DF80",
":	c #B8E080",
"<	c #47E0FF",
"[	c #45DEFF",
"}	c #BADD80",
"|	c #B9DD80",
"1	c #B9DC80",
"2	c #BADC80",
"3	c #45DDFF",
"4	c #44DBFF",
"5	c #BCDA80",
"6	c #BBDB80",
"7	c #BBDA80",
"8	c #43DCFF",
"9	c #42D9FF",
"0	c #BDD880",
"a	c #BCD980",
"b	c #BDD980",
"c	c #BCD880",
"d	c #43DAFF",
"e	c #40D7FF",
"f	c #BED580",
"g	c #BFD680",
"h	c #BFD580",
"i	c #BED680",
"j	c #3FD4FF",
"k	c #C0D380",
"l	c #C1D480",
"m	c #C1D380",
"n	c #C0D480",
"o	c #3ED4FF",
"p	c #3DD2FF",
"q	c #C2D180",
"r	c #C3D180",
"s	c #C2D080",
"t	c #3CCFFF",
"u	c #C4CE80",
"v	c #C3CF80",
"w	c #C4CF80",
"x	c #C3CE80",
"y	c #3BCFFF",
"z	c #3ACDFF",
"A	c #C6CC80",
"B	c #C5CC80",
"C	c #37CBFF",
"D	c #C8C980",
"E	c #C7C980",
"F	c #C7CA80",
"G	c #38CBFF",
"H	c #36C8FF",
"I	c #CAC780",
"J	c #CAC680",
"K	c #C9C780",
"L	c #C9C680",
"M	c #36C7FF",
"                        ",
"                        ",
"                        ",
"                        ",
"         ..++.+         ",
"       @#$%%%$%@@       ",
"      &*==*-***==;      ",
"     >,,',),,')),,!     ",
"     ~{]{^{{{^^^^{/     ",
"    (_:____:__:____<    ",
"    [}}|||}}|}}}}123    ",
"    4556557577757758    ",
"    900a00000bc0b0bd    ",
"    effgghghgiiiggge    ",
"    jkkkkklmllnkknmo    ",
"    pqqqrqqssqqqsqsp    ",
"    tuuuuuuvwwwwvuxy    ",
"    zAAAABAAABAABABz    ",
"    CDEDDEEDEFEEDEEG    ",
"    HIJKKKLKKIKKKILM    ",
"                        ",
"                        ",
"                        ",
"                        "};
