/* XPM */
static char * console_xpm[] = {
"16 16 42 1",
" 	c None",
".	c #00CBED",
"+	c #00CBEB",
"@	c #00C9F3",
"#	c #86FFFF",
"$	c #88FFFF",
"%	c #00C9F7",
"&	c #8CFFFF",
"*	c #00C7F7",
"=	c #00C7F9",
"-	c #8AFFFF",
";	c #00C5FD",
">	c #90FFFF",
",	c #8EFFFF",
"'	c #00C5FF",
")	c #00C1FF",
"!	c #00C3FF",
"~	c #00BDFF",
"{	c #00BBFF",
"]	c #00B7FF",
"^	c #00B9FF",
"/	c #00B3FF",
"(	c #84FFFF",
"_	c #00B5FF",
":	c #00ADFF",
"<	c #82FFFF",
"[	c #00AFFF",
"}	c #80FFFF",
"|	c #00A9FF",
"1	c #7EFFFF",
"2	c #7CFFFF",
"3	c #00A5FF",
"4	c #7AFFFF",
"5	c #00A3FF",
"6	c #009FFF",
"7	c #76FFFF",
"8	c #78FFFF",
"9	c #009BFF",
"0	c #72FFFF",
"a	c #74FFFF",
"b	c #0095FF",
"c	c #0097FF",
"                ",
" ...+.......... ",
" @##$$#$###$$#@ ",
" %&*==%&&-&&&&* ",
" ;>,>>>>>>>>>>' ",
" ),))))!))!,,,) ",
" ~-&&&--&----&{ ",
" ]#^]]]]]]]]]$] ",
" /(#((((((#(((_ ",
" :<[[:}}}<<<}}[ ",
" |111122221111| ",
" 34333355334445 ",
" 67777787777876 ",
" 9000a000a00a09 ",
" bbbbbbbbcbbbbb ",
"                "};
