/* XPM */
static char * copy_xpm[] = {
"20 19 42 1",
" 	c None",
".	c #00CBED",
"+	c #00CBEB",
"@	c #00C9F3",
"#	c #86FFFF",
"$	c #88FFFF",
"%	c #00C9F1",
"&	c #00CBF3",
"*	c #00C9F7",
"=	c #8CFFFF",
"-	c #8AFFFF",
";	c #00C7F7",
">	c #00C5FD",
",	c #90FFFF",
"'	c #00C5FF",
")	c #00C7FF",
"!	c #00C1FF",
"~	c #8EFFFF",
"{	c #00C3FF",
"]	c #00BDFF",
"^	c #00BBFF",
"/	c #00B7FF",
"(	c #00B9FF",
"_	c #00B3FF",
":	c #84FFFF",
"<	c #00B5FF",
"[	c #00ADFF",
"}	c #82FFFF",
"|	c #80FFFF",
"1	c #00AFFF",
"2	c #00A9FF",
"3	c #00ABFF",
"4	c #7CFFFF",
"5	c #7EFFFF",
"6	c #00A3FF",
"7	c #7AFFFF",
"8	c #00A5FF",
"9	c #00A1FF",
"0	c #76FFFF",
"a	c #78FFFF",
"b	c #009FFF",
"c	c #009BFF",
"                    ",
"                    ",
"                    ",
"   ...+..           ",
"   @##$$%&          ",
"   *==-=*=;         ",
"   >,'>,>''))))     ",
"   !~~~~~{~~~~!!    ",
"   ]-]]]]]=---]=^   ",
"   /#$##$/$//#///(  ",
"   _:<____::#::::<  ",
"   [}||||[|11111|1  ",
"   222223244555542  ",
"         678886878  ",
"         90000a0ab  ",
"         ccccccccc  ",
"                    ",
"                    ",
"                    "};
