/* XPM */
static char * cut_xpm[] = {
"20 19 26 1",
" 	c None",
".	c #00CBED",
"+	c #00C9F1",
"@	c #00C9F3",
"#	c #00C9F7",
"$	c #00C9F9",
"%	c #00C5FD",
"&	c #00C5FF",
"*	c #00C7FD",
"=	c #00C7FF",
"-	c #00C3FF",
";	c #00C1FF",
">	c #00BDFF",
",	c #00B7FF",
"'	c #00B3FF",
")	c #00B5FF",
"!	c #00ADFF",
"~	c #00AFFF",
"{	c #00A9FF",
"]	c #00ABFF",
"^	c #00A5FF",
"/	c #00A3FF",
"(	c #009FFF",
"_	c #00A1FF",
":	c #009BFF",
"<	c #0095FF",
"                    ",
"                    ",
"                    ",
"        .   .       ",
"        +   @       ",
"        #   $       ",
"        %& *=       ",
"         - ;        ",
"         >>>        ",
"          ,         ",
"         '')        ",
"         ! ~~~      ",
"       {]{ ]  {     ",
"      ^  / ^  /     ",
"      (  _ _  _     ",
"      :  :  ::      ",
"       <<           ",
"                    ",
"                    "};
