/* XPM */
static char *dontselectmodel[] = {
/* columns rows colors chars-per-pixel */
"16 15 3 1 ",
"  c None",
". c red",
"X c #000088",
/* pixels */
"                ",
" ..          .  ",
" ...        .   ",
" ....      .    ",
"  ....    .     ",
"X X....  ..XX X ",
"XXX X .... X  X ",
"X X X ...X XX X ",
"X X X ...X X  X ",
"X X  ...X. XX XX",
"    ...   .     ",
"   ...     .    ",
"  ...       .   ",
" ...         .  ",
"...           . "
};
