/* XPM */
static char *dontselectcurve[] = {
/* columns rows colors chars-per-pixel */
"16 15 3 1 ",
"  c None",
". c red",
"X c #000088",
/* pixels */
"                ",
" ..          .  ",
" ...        .   ",
" ....      .    ",
"  ....    .     ",
"XXX....XX..X XXX",
"X   X..... X X  ",
"X   X ...X X XX ",
"X   X ...X X X  ",
"XXX X... .  XXXX",
"    ...   .     ",
"   ...     .    ",
"  ...       .   ",
" ...         .  ",
"...           . "
};
