/* XPM */
static char * dontselectcurve_xpm[] = {
"16 15 26 1",
" 	c None",
".	c #00A5D9",
"+	c #00A4E2",
"@	c #00A5E0",
"#	c #00A4E6",
"$	c #00A4E8",
"%	c #00A4EA",
"&	c #00A4F0",
"*	c #00A4F2",
"=	c #00A4EE",
"-	c #003469",
";	c #00346B",
">	c #00A4F6",
",	c #00A4F4",
"'	c #00346D",
")	c #00A3FA",
"!	c #00346F",
"~	c #003471",
"{	c #00A3FF",
"]	c #003473",
"^	c #003472",
"/	c #003476",
"(	c #003377",
"_	c #00A2FF",
":	c #00A1FF",
"<	c #00A0FF",
"                ",
" ..          .  ",
" ++@        @   ",
" #$$%      $    ",
"  &*&=    &     ",
"-;->>>>-;>,; ;;;",
"'   '))))) ' !  ",
"~   ~ {{{~ ~ ~~ ",
"]   ] {{{^ ] ]  ",
"/(( /___ _  ////",
"    ___   _     ",
"   :::     :    ",
"  :::       :   ",
" <<<         <  ",
"<<<           < "};
