/* XPM */
static char * ellipsis_xpm[] = {
"12 4 4 1",
" 	c None",
".	c #00B7FF",
"+	c #00B3FF",
"@	c #00B5FF",
"            ",
"  ..  ..  ..",
"  ++  +@  @+",
"            "};
