/* XPM */
static char * file_open_xpm[] = {
"16 16 40 1",
" 	c None",
".	c #39E8EB",
"+	c #39E9EB",
"@	c #3EE6F0",
"#	c #3DE6F0",
"$	c #41E5F6",
"%	c #42E5F6",
"&	c #46E3FC",
"*	c #45E3FC",
"=	c #46E4FC",
"-	c #47E0FF",
";	c #FAFEFF",
">	c #FFFFFF",
",	c #47E1FF",
"'	c #43DBFF",
")	c #44DBFF",
"!	c #41D7FF",
"~	c #40D7FF",
"{	c #3CD1FF",
"]	c #3DD2FF",
"^	c #3DD1FF",
"/	c #39CDFF",
"(	c #99E5FF",
"_	c #9AE5FF",
":	c #36C7FF",
"<	c #F9FDFF",
"[	c #35C8FF",
"}	c #97E3FF",
"|	c #98E3FF",
"1	c #98E2FF",
"2	c #32C3FF",
"3	c #96E0FF",
"4	c #2FBEFF",
"5	c #94DEFF",
"6	c #94DDFF",
"7	c #2EBDFF",
"8	c #2CB8FF",
"9	c #2BB9FF",
"0	c #2CB9FF",
"a	c #2BB8FF",
"                ",
"                ",
"         .+.    ",
"        @   @ # ",
"             $% ",
" &&*        &&= ",
"-;>;---,---     ",
"'>;>;>;>;>)     ",
"!;>;>;>;>;~     ",
"{>;>;]]^]]]]]{]]",
"/;>;/(_(_((_(_/ ",
":><[}|||}|}1|[  ",
"2<23333333332   ",
"445555666557    ",
"8909900a90a     ",
"                "};
