/* XPM */
static char * file_save_xpm[] = {
"16 16 64 1",
" 	c None",
".	c #00D5CB",
"+	c #00D5CD",
"@	c #00D7CD",
"#	c #00D1D7",
"$	c #37E7EA",
"%	c #00D1D5",
"&	c #5CF7F8",
"*	c #5DF7F8",
"=	c #00CFE1",
"-	c #3BE6F1",
";	c #00CDE1",
">	c #64F6FA",
",	c #66F6FA",
"'	c #00CBED",
")	c #3FE4F6",
"!	c #6BF6FC",
"~	c #6CF6FC",
"{	c #00C7F9",
"]	c #44E2FC",
"^	c #71F5FE",
"/	c #73F5FE",
"(	c #00C9F9",
"_	c #00C1FF",
":	c #45DFFF",
"<	c #74F4FF",
"[	c #45E0FF",
"}	c #00C3FF",
"|	c #00B9FF",
"1	c #42DAFF",
"2	c #00B7FF",
"3	c #6EF2FF",
"4	c #6FF2FF",
"5	c #00AFFF",
"6	c #3FD6FF",
"7	c #3ED6FF",
"8	c #00ADFF",
"9	c #00A5FF",
"0	c #3AD1FF",
"a	c #3BD1FF",
"b	c #3BD0FF",
"c	c #3AD0FF",
"d	c #009BFF",
"e	c #37CCFF",
"f	c #38CCFF",
"g	c #008FFF",
"h	c #35C5FF",
"i	c #34C6FF",
"j	c #0091FF",
"k	c #57EBFF",
"l	c #59EBFF",
"m	c #0085FF",
"n	c #31C1FF",
"o	c #0087FF",
"p	c #52E9FF",
"q	c #31C0FF",
"r	c #007DFF",
"s	c #2EBCFF",
"t	c #2DBCFF",
"u	c #007BFF",
"v	c #4BE8FF",
"w	c #4BE7FF",
"x	c #0073FF",
"y	c #0071FF",
"                ",
" .+...@.+..+..+ ",
" #$%&*******#&# ",
" =-;>>>>,,>>;;; ",
" ')'!!~!~!~!')' ",
" {]{^///^///{]( ",
" _:_<<<<<<<<_[} ",
" |1234334343212 ",
" 56785885555765 ",
" 90aaaabaaaaac9 ",
" defdddddddddfd ",
" ghijjjjjjkljij ",
" mnnoomoooppoqo ",
" rstrruuurvwrsu ",
"  xxxxxyxxyxxxy ",
"                "};
