/* XPM */
static char * file_new_xpm[] = {
"16 16 27 1",
" 	c None",
".	c #39E8EB",
"+	c #39E8EA",
"@	c #38E8EB",
"#	c #39E9EB",
"$	c #3DE7F1",
"%	c #FFFFFF",
"&	c #3EE6F0",
"*	c #3DE7F0",
"=	c #41E5F6",
"-	c #46E3FC",
";	c #46E4FC",
">	c #47E0FF",
",	c #44DBFF",
"'	c #43DBFF",
")	c #41D7FF",
"!	c #40D7FF",
"~	c #3CD2FF",
"{	c #3DD2FF",
"]	c #39CDFF",
"^	c #36C7FF",
"/	c #36C8FF",
"(	c #32C3FF",
"_	c #2FBEFF",
":	c #2CB9FF",
"<	c #2BB9FF",
"[	c #2BB8FF",
"                ",
"                ",
"  .+@#..#.      ",
"  $%%%%%%&*     ",
"  =%%%%%%=%=    ",
"  -%%%%%%;---   ",
"  >%%%%%%%%%>   ",
"  ,%%%%%%%%%'   ",
"  )%%%%%%%%%!   ",
"  ~%%%%%%%%%{   ",
"  ]%%%%%%%%%]   ",
"  ^%%%%%%%%%/   ",
"  (%%%%%%%%%(   ",
"  _%%%%%%%%%_   ",
"  :<<::[<:[<<   ",
"                "};
