/* XPM */
static char *icon[] = {
/* columns rows colors chars-per-pixel */
"32 32 233 2 ",
"   c None",
".  c #1E345F",
"X  c #1E3666",
"o  c #243D6B",
"O  c #253A69",
"+  c #213D78",
"@  c #2D415A",
"#  c #354756",
"$  c #2B426B",
"%  c #26436C",
"&  c #35486A",
"*  c #3A526A",
"=  c #264172",
"-  c #2B4374",
";  c #2D4478",
":  c #2D497B",
">  c #264777",
",  c #354974",
"<  c #384B77",
"1  c #3A517B",
"2  c #395276",
"3  c #43546A",
"4  c #42567A",
"5  c #445A7C",
"6  c #485A7C",
"7  c #415573",
"8  c #525C79",
"9  c #424F7D",
"0  c #52637E",
"q  c #636565",
"w  c #63667D",
"e  c #977C7E",
"r  c #AE7E7C",
"t  c #3D5386",
"y  c #3B5587",
"u  c #3D548C",
"i  c #425483",
"p  c #445A83",
"a  c #4B5B82",
"s  c #445B8C",
"d  c #4C5D8B",
"f  c #41578A",
"g  c #435B93",
"h  c #475E9A",
"j  c #515C80",
"k  c #496187",
"l  c #54638E",
"z  c #5C6A8C",
"x  c #596587",
"c  c #4D6293",
"v  c #4C6599",
"b  c #546592",
"n  c #536997",
"m  c #5C6C95",
"M  c #546A9A",
"N  c #5A6C9D",
"B  c #56679B",
"V  c #5E729D",
"C  c #626885",
"Z  c #677286",
"A  c #767689",
"S  c #627391",
"D  c #6B759B",
"F  c #6F7C9A",
"G  c #687597",
"H  c #767A9A",
"J  c #696991",
"K  c #4963A1",
"L  c #5C6DA3",
"P  c #566AA6",
"I  c #5E71A3",
"U  c #5C72A8",
"Y  c #556AB8",
"T  c #516BB9",
"R  c #6D7AA2",
"E  c #6777A6",
"W  c #737EA2",
"Q  c #757CA6",
"!  c #606FB2",
"~  c #6C7CB4",
"^  c #6878B4",
"/  c #767CB5",
"(  c #626CAB",
")  c #6377C5",
"_  c #727BC1",
"`  c #89788B",
"'  c #937F87",
"]  c #A17E8F",
"[  c #857CAD",
"{  c #7681A3",
"}  c #7583AB",
"|  c #7C86AD",
" . c #7D86A8",
".. c #7C87B3",
"X. c #7B8AB4",
"o. c #7B86BC",
"O. c #7D8CBC",
"+. c #7582B7",
"@. c #6D80A2",
"#. c #7987C3",
"$. c #7E8CC2",
"%. c #7483C7",
"&. c #7B8AD5",
"*. c #7F93D0",
"=. c #7894E7",
"-. c #6D8CE7",
";. c #868499",
":. c #98839B",
">. c #8C8B92",
",. c #A88699",
"<. c #B89899",
"1. c #A88588",
"2. c #838BAB",
"3. c #8589AA",
"4. c #9489AA",
"5. c #8B93AC",
"6. c #8790AC",
"7. c #9393A5",
"8. c #838CB3",
"9. c #848EBC",
"0. c #8B8EB5",
"q. c #918AB3",
"w. c #8C95B4",
"e. c #8592BA",
"r. c #8B92BB",
"t. c #8E99BE",
"y. c #8790B3",
"u. c #9395BC",
"i. c #959BBD",
"p. c #989BB5",
"a. c #A897AB",
"s. c #A79AB5",
"d. c #B799BC",
"f. c #AC8DAD",
"g. c #9DA3BD",
"h. c #A2A2BE",
"j. c #ABADBD",
"k. c #ABA7BA",
"l. c #BCA5BD",
"z. c #C4909F",
"x. c #D19DB1",
"c. c #E19DA2",
"v. c #CBAEBC",
"b. c #838EC2",
"n. c #8C94C3",
"m. c #8B94CC",
"M. c #8796C8",
"N. c #949CC3",
"B. c #949BCB",
"V. c #9799CB",
"C. c #808FD1",
"Z. c #8595DC",
"A. c #8897D7",
"S. c #969BD8",
"D. c #A49AC5",
"F. c #9BA1C2",
"G. c #9AA3CC",
"H. c #9EAAD6",
"J. c #92A1DA",
"K. c #9BA6DB",
"L. c #99A5DA",
"P. c #8FA3DD",
"I. c #A1A3C3",
"U. c #A5ABCB",
"Y. c #A8ACC6",
"T. c #B8AAC6",
"R. c #AFB1C6",
"E. c #B8B8CB",
"W. c #A3ACD4",
"Q. c #A9ACD2",
"!. c #A5A9D8",
"~. c #ACB3D5",
"^. c #AEB5DC",
"/. c #A5B2DC",
"(. c #B4BADD",
"). c #B8BBD6",
"_. c #B9ACDD",
"`. c #859BE3",
"'. c #8A9DE9",
"]. c #8EA3E3",
"[. c #8BA4EB",
"{. c #98A8E8",
"}. c #99ADF1",
"|. c #96B6F8",
" X c #A6ACE4",
".X c #B7AAE5",
"XX c #ACB5E3",
"oX c #ADB9E4",
"OX c #A4B3EC",
"+X c #A8B6E8",
"@X c #B3BBE5",
"#X c #B3BDEB",
"$X c #B6BAE3",
"%X c #A4B6F1",
"&X c #ADBCF3",
"*X c #A7B8F4",
"=X c #B6B8F2",
"-X c #A3AAF5",
";X c #C7A5C9",
":X c #D7ABCA",
">X c #C9A8D3",
",X c #D8BCDF",
"<X c #E5B2C0",
"1X c #BEC1D9",
"2X c #B8C1EB",
"3X c #BBC5F5",
"4X c #BDC8F6",
"5X c #B7C5F9",
"6X c #C5C7D9",
"7X c #D8D3DE",
"8X c #D1C9D0",
"9X c #CACBE4",
"0X c #C3C4EF",
"qX c #CACDEC",
"wX c #C6CAE6",
"eX c #CDD1EF",
"rX c #D5D9E5",
"tX c #D7D9EA",
"yX c #C3CEF9",
"uX c #C6CAF2",
"iX c #D5CEF1",
"pX c #CBD2F5",
"aX c #CDD4FA",
"sX c #C9D3F8",
"dX c #D4DAFB",
"fX c #D3D6F7",
"gX c #DCE2FB",
"hX c #D7E0FA",
"jX c #E6E4EA",
"kX c #E2E2F2",
"lX c #E5E7F9",
"zX c #F5F5FC",
"xX c #FCFCFD",
/* pixels */
"                        5XOX'.K.-X-X{.].                        ",
"                  |.}..X_.S.n.d.d.D.!.!. XL.S.                  ",
"              -X0XiX,X:X:X;Xq.Q f.T.x.D.q.m.m./ _               ",
"            .X;X:X:Xx.c.c.z.,.4.Q l.d.] J h K K ( !             ",
"          .X>X:X<X:X<.] ] ` w ` q.4.` x s P U g h o.~           ",
"        .X>X;Xd.4.A w C w h.{ { q.:.f.a B B g g h b.B.P         ",
"      =X>Xf.[ H H D D 8.z w.g.s.p.6.C f i d N d s L !.^ M       ",
"    }.S./ / n.N.B.i.2.@.h.R.g.7.T.l 6 D 0.Q p.w.(.W U P M 8     ",
"    =._ 8.b.n.Q...9X9XZ E.rXj.6Xk...i.r...I. .3.iXB.9.U U x     ",
"  =.S.&.) n.kXqXU.i.6XF.h.7X6X1X5.m 6XY.h.H 1 : ~ Q B.o.m v *   ",
"  [.S.! P U R ~.Y.w.~.Y.6XE.E.6X1XH.i.J o i 6 N M p b m.n.I 6   ",
"  A.%.M.h ^ E p g.R.i.R.jXE.6X .;. .9.Y.d d & : 1 X.R R L.X.k   ",
"%X&.U.e.( } Q.L E.R.g.h.jXjXj.} p S A Y.0.| = f < N S 1 N.B.s # ",
"[.Z.*.qXU.t.{ b ,.;.s.k.E.7.Z l V 2 w & W N l < : f 1 k M D I 3 ",
"-.) P.W.| L g #.0.e 1.<.1.q A 0 6 & q . X O f B ; 6 y c y y n 3 ",
"-.) o.b.W.N.~ $X(.a.r z.a.7.0 V 2 & 2 2 , 9 a F a l y u N c y 2 ",
"-.T ~ ~ v u + + i 4.l.<.l.` x W 4 , - O O o ; 6 r.} I > L : c & ",
"=.Y Y ^ M.(.3.I t i a.7X8X5.} F a < p o = $ % X l i.V = t f c * ",
"'.A.S.U P Q.dX9Xi.W @.8XtXzXrXtXrXE.| , 0 @.G F o 2 t.= c : k 2 ",
"}.%.#X^ / U.9.o.h t X.S w.wXxXzXxXzXrXw.d F D 6.x 4 8.m : s N @ ",
"  +XdX$.N.X.w.h.8 & r.B.i.S g.lXxXxX2Xe.z 5.W.G.F V E H.> y 1   ",
"  {.gXb.G.i.1XrXh.a x y.kXrXjXxXxXqX(.{ 4 y.~.2Xy.F.X.K.I c &   ",
"  -.oXeXr.O.r.~.tX^.h.eXtXzXgX6Xw.} | S F 5.e.aX(.2XoX{.$.k @   ",
"    +XyXXXb.G.N.(.dX~.@XqXfXwX@XW.G.t.H 5.0 8.{ 1 e.+XO.m 3     ",
"    ].2X*X$.uXH.qXlXXXXXN.uX0XXXe.F.} 5.t.N.0 7 $ } +.k 6 #     ",
"      [.C.oX2XpXb.uX3X@X!.qX@X!.@XW.^.W.r.X.E O.J.*.B s 2       ",
"        =.*.b.oXB.b.oXdXlXdX/.dXhXpXoX^.e.!.K.{.A.M.+.n         ",
"          ].%X2XyXyXdXaXaXfXlXdXhXdXgXsX/./.#X XM.#.L           ",
"            [.5XaXaXdXaXsXdXlXgXgXgXgXdXyX&X*XJ.^ L             ",
"              `.&.%X4XyXyXdXdXdXfXyXyX3X&XOX{.%.L               ",
"                  `.}.&X*X3X4X5X3X&X%XOXJ.C.^                   ",
"                        `.}.].{.].`.Z.%.                        "
};
