/* XPM */
static char *lightinspector[] = {
/* columns rows colors chars-per-pixel */
"16 15 171 2 ",
"   c #323232",
".  c #343434",
"X  c #373737",
"o  c #3A3A3B",
"O  c #3E3D3E",
"+  c #414142",
"@  c gray27",
"#  c gray29",
"$  c #4E4F4F",
"%  c #545353",
"&  c #585858",
"*  c #5D5D5D",
"=  c #636263",
"-  c #686768",
";  c #6D6D6D",
":  c #727272",
">  c #343535",
",  c #3A3A3A",
"<  c #3E3E3D",
"1  c #424241",
"2  c #454546",
"3  c #494849",
"4  c #4C4C4C",
"5  c #515151",
"6  c #555656",
"7  c #5C5B5C",
"8  c #626262",
"9  c #676767",
"0  c #6D6C6D",
"q  c #777777",
"w  c #363737",
"e  c #3A393A",
"r  c gray24",
"t  c #414041",
"y  c #484849",
"u  c #656462",
"i  c #D9CFBE",
"p  c #605E5A",
"a  c #555555",
"s  c #5D5D5C",
"d  c gray40",
"f  c #6D6C6C",
"g  c #717271",
"h  c #7C7C7C",
"j  c #414141",
"k  c #444444",
"l  c #494848",
"z  c #666562",
"x  c #EEE7DB",
"c  c #FFF3DC",
"v  c #CBBFAB",
"b  c #5B5A57",
"n  c #707170",
"m  c #818281",
"M  c #3C3D3D",
"N  c #444445",
"B  c #484848",
"V  c #EBE5D9",
"C  c #FFF8EA",
"Z  c #DBCEB7",
"A  c #C8BDA8",
"S  c #5E5B59",
"D  c gray38",
"F  c #7A7B7A",
"G  c #818181",
"H  c #878786",
"J  c gray25",
"K  c gray28",
"L  c #636260",
"P  c #C8BDA9",
"I  c #646260",
"U  c #6A6A69",
"Y  c gray48",
"T  c #848484",
"R  c #8B8B8B",
"E  c #626260",
"W  c #696866",
"Q  c #737272",
"!  c #8E8F8E",
"~  c #4B4B4B",
"^  c #D8D1C4",
"/  c #FFF5E4",
"(  c #FFF5E3",
")  c #FEEFD4",
"_  c #C4B8A4",
"`  c #C2B7A2",
"'  c #A19889",
"]  c #6A6A6A",
"[  c #828283",
"{  c #929292",
"}  c #4C4D4C",
"|  c gray31",
" . c #656360",
".. c #EBDEC8",
"X. c #FFF1D7",
"o. c #D9CCB5",
"O. c #A29887",
"+. c #A19886",
"@. c #948C7C",
"#. c #51504E",
"$. c #838382",
"%. c #949595",
"&. c #535453",
"*. c gray32",
"=. c #62605C",
"-. c #EADEC6",
";. c #D8CBB4",
":. c #948B7C",
">. c #444341",
",. c #717171",
"<. c #8A8B8B",
"1. c #9B9A9B",
"2. c #595A59",
"3. c #5A5A5A",
"4. c #555556",
"5. c #64625F",
"6. c #EADEC7",
"7. c #928A7B",
"8. c #434240",
"9. c gray30",
"0. c #69696A",
"q. c #838383",
"w. c #959596",
"e. c #A0A0A0",
"r. c #5F5F5F",
"t. c #636464",
"y. c gray37",
"u. c #6A6864",
"i. c #EBDEC6",
"p. c #D7CAB4",
"a. c #938A7C",
"s. c #4E4D4D",
"d. c DimGray",
"f. c gray51",
"g. c gray58",
"h. c #9E9F9F",
"j. c #A5A4A4",
"k. c #5F5E5F",
"l. c #6C6C6D",
"z. c #6D6E6D",
"x. c #706F6A",
"c. c #B3AA98",
"v. c #504F4D",
"b. c #515252",
"n. c #9E9F9E",
"m. c #A4A4A5",
"M. c gray66",
"N. c #636463",
"B. c #696868",
"V. c gray43",
"C. c gray45",
"Z. c #717071",
"A. c #656565",
"S. c gray44",
"D. c #939494",
"F. c gray62",
"G. c #A4A4A4",
"H. c #ABABAC",
"J. c #686868",
"K. c #797879",
"L. c #7D7D7E",
"P. c #818182",
"I. c #808181",
"U. c #898988",
"Y. c #949594",
"T. c #9E9D9E",
"R. c gray64",
"E. c #A7A7A7",
"W. c gray67",
"Q. c #AEAEAE",
"!. c white",
/* pixels */
"  . X o O + @ # $ % & * = - ; : ",
"> X , < 1 2 3 4 5 6 7 8 9 0 : q ",
"w e r t @ y u i p a s d f g q h ",
"e r j k l z x c v b & d n q h m ",
"M j N B u V C c Z A S D n F G H ",
"J N K L V C C c Z Z P I U Y T R ",
"k K E V C C C c Z Z Z A W Q T ! ",
"B ~ ^ / / / ( ) _ _ _ ` ' ] [ { ",
"} |  ...X.X.X.o.O.O.+.@.#.9 $.%.",
"5 &.*.=.-.X.X.;.O.O.:.>.*.,.<.1.",
"a 2.3.4.5.6.X.;.O.7.8.9.0.q.w.e.",
"3.r.8 t.y.u.i.p.a.>.s.d.f.g.h.j.",
"k.t.d.l.z.9 x.c.v.b.d.G g.n.m.M.",
"N.B.V.C.q q Z.- A.S.[ D.F.G.M.H.",
"J.z.C.K.L.G P.I.P.U.Y.T.R.E.W.Q."
};
