/* XPM */
static char *logo[] = {
/* columns rows colors chars-per-pixel */
"126 126 16 1 ",
"  c #000200",
". c #1A3562",
"X c #354D78",
"o c #636569",
"O c #5F6983",
"+ c #566897",
"@ c #4861A5",
"# c #7D88B6",
"$ c #7A8EDA",
"% c #A197AD",
"& c #CC99AB",
"* c #A1A8D9",
"= c #BBC5F3",
"- c #D2C7D6",
"; c #D2D4F2",
": c #F9FBFB",
/* pixels */
"::::::::::::::::::::::::::::::::::::::::::::::::::::::::::::::::::::::::::::::::::::::::::::::::::::::::::::::::::::::::::::::",
":                                                                                                                            :",
":                                                                                                                            :",
":                                                                                                                            :",
":                                                                                                                            :",
":                                                                                                                            :",
":                                                                                                                            :",
":                                                                                                                            :",
":                                                                                                                            :",
":                                                                                                                            :",
":                                                                                                                            :",
":                                                                                                                            :",
":                                                    .X##**=***=**$*##@X                                                     :",
":                                                .#*===**$$$$$******=$***$$+.                                                :",
":                                             .#*====*****#*&*$*$**;==*=**$$$$@X                                             :",
":                                          .#$=$=;;=;**$$$*%*%&%*#$#*==****=***$$@.                                          :",
":                                        X#=$$$***$$@$#*&*&&%&&&%&%%#*#*#**=*=**$$#@                                         :",
":                                      X**=*$*==*&*&*&***#*#*&&%&%&%*%=###%#**=*=**$$@.                                      :",
":                                    X#*$=*====-&=&=&-&=%$#####%%*%&%&%*$*###$###***#$@@                                     :",
":                                   O***;;;;;;*&*&;--&-&*%$@+#%%*%&%&&*&&%&%####==**$$$$$X                                   :",
":                                  *$=&;;;==*;&-&=&-&&&&%%%#X+#%O%%=&&%&%&%&%%***$@$###$@$@.                                 :",
":                                +***&;-=&--;&=&;&&&&&-&&%&#*+@+%%-----&&%&&&%#X@@@@$@$#$@$+o                                :",
":                               #*&*&*%=&;&&%&&&&&&&&&&&%&%%#*+X+*%-&-%&%&%%##XXX@@@X@@++$@$++                               :",
":                             X#*&*&*%*&=&&%&&&&&&&&&&&&&%%%&%;X+%%%&&&%&%+X@X@.@@@X@@@@++++$@+                              :",
":                            X$*&*&*&-&&&&&&&&&&&&&&&&&&OOOOoo%%#O*%#%#+.X.XXXX@@+@#XXX@X@++@+@+                             :",
":                           X$*&*&*&&&&--&=&&&&&&&&&&o&%%OOoOo%%%%OX+XXXXX+X+X@@#++#+@@X@X+++@+@+                            :",
":                          O$*&*%=&&&-&-&-&&&&%%%&o&o&oOOOoOO%o%%*%#O%%%o%XXXXX@X+@##+@@.@@###++@+                           :",
":                         O$***&*&*%;--&-&&%&%%O%%%OOOOOOoOo%%%%*%&o&&&&&O+@++++++X@#X@X@X+@***#$@+                          :",
":                        X$*&*&*&&%=&&%%%%O%OOoOOOoOOO%%+OO##%o%#%o%ooo&%XX+++X#+X@+X+.XXX@##*###@@+                         :",
":                       X$*&*&=&*%-&&%&#%OOOOoOoOOOOOO;-%O;%%O%#%%*%%o&%#XXX+++XXX@X@X@@@@@@$*=*##+@+                        :",
":                       #=&=&*%&%*%%#%##OO+OXOXOoOXOoO+#O%*%#%#*#%%%%%%%XX.XX+@+++@@X+@@X@X+#**=#$@+@X                       :",
":                      +=&;&*&*%*%%##O#+OOOOOXOOOOOOOOOO#%%#%%=%*%*#%%%X+X+XX.XX+X@@O#++@@+@+*===##@+@X                      :",
":                     X*&;&*&*##+#O#OO+O+O+O##+#O#OOoO%#**%%#%%*%*####XXX@XXXXXX.@@+++X#@XX@X+#=%$+#@@XX                     :",
":                     **=&***####+#+O+O#*#$##%##*#*##O***%=%%%*%*##OO.X.XX++#+#*+X+X+@@@#X@@+X+#*#$@$+OO                     :",
":                    $**&*###$+++###+##*#*+####*#*##O;#*%-%%O%%*##OX...X.....OXXX@XXX+#*=#XXX++##*++@#+O                     :",
":                   O$***#$@$+$#***+%==**###=OO+O+*#;;;-%O%%-%-%;-X+#+X+%XXXO###+X++++#*:;*+++@+#@#@+@++O                    :",
":                  .$*$*$$@$+#$*$***#***##%%%OoOXX+#-:;#X%%%%O#--O++++##%=+#O=%*%;-:--##=;;;##X+@@+@X+@++o                   :",
":                  #$$*$$+##$*=*;**=;==##*:-:;:OOXO%---%%%-%--*%##OX++%#-==XO#;**%-%:;;**=:;**#++@#+@@+@OoO                  :",
":                  =$$@$@$*##*@#%++;%#+O+;-;=;;%XOO%-:;-%%%---%;:-OX+*#X%=##+#%#=;%%O##=;:;;O#+#*#+#+@@++O.                  :",
":                 =$$$$@$**#$##+$#*=*#O##-;*--;%OO#%;::=*-:-;*-%;+X#=;:#%####X**#OXX@XX*-;:=*+$**++X$#@@++O                  :",
":                .$$@$@$$*@$+##$%;***%##O*###*%;%%#-%-::%-%%=--OO++=+#;;%O#*O%;;%#XXXXX+#=*=**#=#+@+#*+@++Xo                 :",
":                #$$$@$*$@$#*#-#::;====%O%*###-=O#*#%-::-*=%--;%*##+#X::-X*=;%;OO++.X.X.##O**X+#*###+++@$@OXX                :",
":                =$$@-*$@$@$#;@#::-;%;#*%;%%-:::-;%#%:--O;----;-#OXX#%-:--O*-#XXXXXX.X.XX+XXO+@+*;%#++@+++XO                 :",
":               O$$@*;$@$@@#+@##::=;::;-;*-=;-;;*-%-;--%::;:;;---*OX#O%-%*O++X..@XXX+XXXXXO++X+@%=*##++++++XO                :",
":               $$$==$@@@@@#@@+#+#+*-:-;%%O*%-%%%=--o--%%%%;-%%-=$##+#O#+#XX....XX.+X+++@+X#XXXXX###+#+++++OX                :",
":              .$$:*$@$+@@@$+X$@#+#**#=*=%%#***#*%:%=-%%*;;*;**%:;**==*##+++XX@..+++X+$#+XO+#+XX+#*****+++#+O                :",
":              +$*$$@$@@@@X@@@#*#+XXX##==*##%#**%--;;%%%%;%-;%#%--%;==#++-O+XXXX.+XXX+.++@X+++@+X##*****X+++Xo               :",
":              $$*$@$$$@$#@@+X$#*++X+X%**#%%=O%*;-;::;;%*;--*#*%-XO;#%$+%--O+X.X@XXXX.X.XX+#%+OX#O#+##=*#+++OoO              :",
":              **=$$@$#*=#X+@X@*#+@+@X+*%%%%%#%#%**:-:*%---%O#**#OX#%+#=%-=%OX.X+#+#.X.XXXX+OXX###X+O#*=#+X+XO               :",
":             +$=$$$*#*#+X@X#X$*+@+@+X#---;-#%***#;-:-;-:--####O%X++OO#*-=#+*+#XO#+XXX@X+X+XXXO##+++++***##+OXo              :",
":             #=$$$$#**-=+++#**++*#+O#O=--%%O;%***-:--;;-:%*##OOXXXXo*o%--#+O*++XXX....XXX.XXO%#OXX++#****O+XOX              :",
":             =*$@$;;;=%+#+#$#$@;;$X##*-:-%*%*%O%%;:::::;%%O%#O++XXX%%%o%=*+O=;*+XX.@X@X@X++*+O++XXX##;***#X++O              :",
":             =$$$@=##@@.@++XX++#=+X@O%---ooO*#%o#%:-:::=%OO#O++XX.XX%ooO#X++#%=+.X+XXXXXXXO+X.X.X.+X#**###OXXXo             :",
":            o=$$$=*@X+**#**#+#*;#O+#+-o%o%o%%%%%%-;:-;;%OO#OX+X+X+XXooo#XX+#++OXXOO-..XXXXX+.XX+++X++*###*#OXOX             :",
":            #*$$$$@@*;;==%*#;*++X.@X+%oo%o&%*%%%-==%-%%o%oOX+@###XXXooo#X..#*#O.=.+%X...@.XXXX++#X#X++#+O++++oO             :",
":            #$@$$$$**:;:;*%*%+X@.XX+X&%&%%%*%=%-%=%*%%oooOOO+++$XX.Oooo#.X.X.X%++X.+++.@.XX#XXXXX+++X+##X+X##OXo            :",
":            $$$@@+*$#;;-=-*XX.X.X.+.XO%o%o%%&o%%-%%%%oooo#OX+X+@X.XXoooX...XX..XXX+.X+XX@.XXXXX.X.++XX+X+X++#oO             :",
":            $$@$@$***;;*+@X@X@XX.X++#+%&o%o&o&&&%-&ooooOO%OOX+X+XX.OoooX.....X...+++X#X.X@.O.XX@XXX$X+XXX++++OOO            :",
":            $@@@$#$#*=;#$@XX+X+@++**=#*#&%oo&o&o&%&oooooOoOOOX+XX.XXooo...........X++++.X.X++.+.X.+XXXX.X@XX++X             :",
":            $$@$@$$$*=%+@$#;=*$***=====*%&o&o&&&&&o&oooOOO+O++XOXX.XXo..X#OOX@XX...X+%@+XX.++X...XXXXXX@X@+++OXo            :",
":            $$$@$@@###;X+#;;;-*++#=*;;;;-&&oo&&o&%%ooo%oo++++XXXX.X.X...X.XX..OO%#+...#.XXX+XX+.X.OXXX#+XX@XXXX             :",
":            $$$$$@@$@$=+@===#@X@+=*=;;%*#&%&o&&&o-----o%oO++++XXXX.XXOXX...X.X...O++XX*X+X.#X#+X.@X+X$*#@+X+X+Xo            :",
":            =@$$@@@@$.+#@+#.@X..XX++#XXXO%-o&o&&-%--%%oooX++*++X+XX.+.X.X...XXX+X...XX;=O.X###+...XX++#.XX+X+XX             :",
":            *$@$@@@@@+@@.@@@@@.@.@.XXXXOX%-:--&&&----%oOoOX#%*XOXXX+XX.X...@.....X.@OX#;##X+#*X+.@.@#+#@X+++X+Xo            :",
":            *$@@@@@@##;@@@@XX.@...X...+XX#-*-&-&o%-%%o%o#+OX+++XX..XX................+XO**#.X#++X.X@+X+XXX+XXXX             :",
":            $$@$@$@##=++X##+@+%+X@.X.@.XX++*%-&-&&%-%-oO+$+OX+XXXX.X.X.X.O.OO+.OX....X+X.*;#.+#*+XX.XX...+++XOXo            :",
":            $$@@$@@@$@*##+*##@##*@+@X.X.XXO+%%%%----%%%O++#OOX++X.X.XX+X+...X...X......+X.#;#.+$+XX.+...XXX@+XX             :",
":            $$@$@@@$#$+@#$#***%%++++++X@XX+Oo&-;-:-:;:##+*+*+OX#XXXXX#X..X.X..X@.XXX...X#O.*;O.+.+..+@.+X+X++O.O            :",
":            $$$@@+$@@#*@+$$#;;:;==**###+#+##=#-%:-::-%#####+#O#+XXO.XX+.....XXX.X.XXX..XXO+.%=X.....#..XX@+X++X             :",
":            +$$$@$*$#$$$@@@$;;::;:;;=:*O%%%**;:;---:::::%*+#*;-*O==*#=+X.XXO.oXO+O+OO%.X.o++.**..XX.+X.X.+X++O.o            :",
":            +$**=*=**+@@@@#@+=;;:==**#*@X.XXXX-;:;;%:::::;:;:;:::;;#$*#X+.XOOO#+O#XX#O..X.XXX+;+.X@.+X..XX@X++O             :",
":            X$**$==;*$@@++X@@@#;;;;=#$##@XXXXXXO#*;;=:::::::::::::;#+###+X.XX++OOO##O-#XX+XX.X=-.+X.X++X.@+++O o            :",
":             $=$*$;;*$$.@@###OX#=*$##++XXX@.#%=+XO#%;;:::::::::::::;;%*+*+..XX#+*##+X%%+..XX..#;XX+.X@XXX@#++Xo             :",
":             **$@**:*=+@#$+**=#X+=**#$++X++++#X+XO+##*;:::::;:::::::::;*##+OX#+++#+OOO*%XXXO+XX=##XX.XX+X#++Xo              :",
":             @=$$**;==#@++##=%=+#%#@$@@@X.XX#+#+#%%XO+*=:::::;::::::::;;;OO+O..+##*%#%=%O.X+#.X*;#X.X.X@++++XX              :",
":             +*=***;;;#++**;;;*;%+%;OX.X..X####**;*$+#+#*;::;:::::::::*=##+O+.X%#=%*%:;;OXXo#XXO;;X@XX.@X+++Xo              :",
":              *===:;;;+X++#+++##-#%%%...X.X+*#*%##*%O#+XO*;;:::::::::=##*#O O#*O#%*#*=%%%XO.*XX+==++X.+.XX+XX               :",
":              +=$*;:;;+#*=O#XX+OX%%#-;X..#XO**#*==--##XOX=:;::::::::;=***%+#+*=*%***#*#*+OXX*OX#=;##X+XXX+X+.O              :",
":              X*=*;::=$@$@%#;-;;:-%*#%%...#X-X+#*;;-;OOOO%:::::::::=*##+X..XO+*%*%%%=**#OO#+*+##=*#+XXXXXXXXX               :",
":               ***;::;++@@=;***;;:::%**O.XX#OOX#*;;:;:-%;:::::::::;;#=%OXOXO+##;%##;*;=*#OX**#+**=*$+#.++XXoX               :",
":               #$@*;:;$#+%*=+++###;::%**X.X++XO#%%::;::::::::::;;%*-;;=%#OO+OO#%O+=%==*+O%=*##$****##+X.+XX                 :",
":               X$$$=::*=*###+######=::;;*%X#XO===:%:::::::::::;;=*##%==*OOOOO##=OO=;;:*;;;;=**#=****##XX+OXX                :",
":                $$$$:;;=*X+#*#%#*###;;:-;;+#%%;=;:-%:;:::::;:;=###;#%%*#OXOO#%*%#O#=:;;;;==*;***=$**$#+.+XX.                :",
":                +$@$;:;;++*=#*#*#-#*=*::*:##=%*;;;-;;:;:;;;;*%O=OO%%#%OOOO+#O%X#%%+==;==#*#=======***$#+XXXX                :",
":                 $$#;;:=$*;%*#**;#*##+-:;;=+=*;;;=;;:;:;==**=%=%%#*##X*#O+OO%XX##+*=**=##X#*==;==*#####+OX.                 :",
":                 +$$;:;;$*==#$*=***####:;;=$*:=;*=;;;:;;;:;;=;=*#***#%#%#OOO%oO#+#**#**O++#**;==**#OX##OXX                  :",
":                  $*=;=;=+;;$+***#*+*+#;:;;#=;*=*;=*;;=#;-=*==**=%=**%*#%OOO%XXX##*#O++.O+O#**=**##+XXOXo                   :",
":                  X$===;==;;++=;*$#*#$=:::;==;**==*;;;*==*#=**==;=*##*+%OO#%#%OO##+#OOXX.O.O#$#*##+OXO+o..                  :",
":                   #$==;=*;=++=;;%##**;;:;;$=;==#+#===;==*****=****#**OoOO*#=;*+O+#+++XX..+X####+@XXX+O.                    :",
":                   X$**=*$=;#@#;;;**#*;:;:;**==;*#XO*==;*;;;=*O#%;**=##-%*#*%%#*#O+OXO...X+#+##$+XXXXOXX                    :",
":                    +$==*#==*@+*;;;=*%*=:;;*;*=;;#=#=*;==;;=;++%*#*=%O#%-=*###*=#+OXX..X+@###+#++XXX+XO                     :",
":                     $$*$$*;=*#**:;;=#**;:;;=*=;=*O;====;;**=$%=*-*##*O;;;*%#=**##XXX++$#*####++++X+XO                      :",
":                      *$*@#*==**=*;==##*=;;;;=*$***O*=;;=*#%##=*;**#+#;==#*%*O####+X##*$*$*$#++@XX+@+.                      :",
":                      X=*$@$***=;;=;=$+*#*===;;=***=;;;:==#*=;==*;**=;;=###*##+#+##$$*******##++++++XX                      :",
":                       @=*@@$$#$*;**=$+++##***;;;;;;:;;=$#*===;;;=*=;;=#**=**#*#$#$$***$*$*#$##+++++X                       :",
":                       .$**$@$+$$=;**=*O+$+*===;;:;:::;*##=;=;;;;:;;=;*===#O+*=*******$*$***$$##+$+o                        :",
":                         @***$*+@@;=****#**=**;=;;;;;;;;;=;;;;:;;;;=*#*=*####*=****$***#$$*$$#$#+@X                         :",
":                         .$**===**$;;=***==;;;;;;;;:;;;:;:;:;:;:;;;;;;;;;=*=*=*=#***#*#*#$$$#$##+o                          :",
":                          .#$$**=**=;==*==;;;;;;;===;;;;:;:;:;;;;=;;:;:;:=**==**===*=**$*$$##@++X                           :",
":                           .$******=;;;;;;;;;;;;;==;;;;:;:;;;;=:;;;:;:;:;;;;==*=====*=**$$#$##+o                            :",
":                             +$$****;=;;;;;;;;;=;=;;===;;;;=;;:;:;:;;;;;;;;;**=*=*=**$$##+#++@X                             :",
":                              +$$*===;;;;;;;;;;;;;=;;;=;;:;:;:;:;:;:;;;:;;;;;===*=*=**#++$@$+X                              :",
":                               X$*===*==;;;;;;;;;==;;;;;:;:;:;:;:;;;;;;;;=;====*=*=**$$#$@+@X                               :",
":                                .$****=======;;;=;=;;:;:;:;:;:;;;;;;;;;;;;====***=****#$$#@.                                :",
":                                  +$*$$*======;;==;;;;:;;;;;;;;;;;;=;=;====*=***=**$$#$++X                                  :",
":                                   .$$$$$=*====;===;;;;;;;;;;;;;=;=;=;======*=*=****#$++.                                   :",
":                                     X$$$$=*========;;;;;;;=;=;========*=*=*=****$$+$@X                                     :",
":                                       @$$*==========;=;=;=;==========*=******$*$$@+X.                                      :",
":                                         X$$**=$=*=*=============*=***=****$$$$#$@X                                         :",
":                                           X@$$**=***=======*=*=*=******$*$$$$$+..                                          :",
":                                              @@$$*$*$*******$***$***$*$$#$@$X.                                             :",
":                                                 X@$$$$***$*******$*$$$$@+X.                                                :",
":                                                     .@@@@$@$$$$$@$@+XX                                                     :",
":                                                                                                                            :",
":                                                                                                                            :",
":                                                                                                                            :",
":                                                                                                                            :",
":                                                                                                                            :",
":                                                                                                                            :",
":                                                                                                                            :",
":                                                                                                                            :",
":                                                                                                                            :",
":                                                                                                                            :",
":                                                                                                                            :",
":                                                                                                                            :",
"::::::::::::::::::::::::::::::::::::::::::::::::::::::::::::::::::::::::::::::::::::::::::::::::::::::::::::::::::::::::::::::"
};
