/* XPM */
static char * modify_vertices_xpm[] = {
"16 16 28 1",
" 	c None",
".	c #00CBEB",
"+	c #00CBED",
"@	c #00C9F1",
"#	c #00C9F3",
"$	c #00C7F7",
"%	c #00FFF9",
"&	c #00C5FD",
"*	c #00C5FF",
"=	c #00C7FD",
"-	c #00FFFF",
";	c #00FFFD",
">	c #00C1FF",
",	c #00BDFF",
"'	c #00BBFF",
")	c #00B7FF",
"!	c #00B3FF",
"~	c #00B5FF",
"{	c #00ADFF",
"]	c #00AFFF",
"^	c #00A9FF",
"/	c #00A5FF",
"(	c #00A3FF",
"_	c #009FFF",
":	c #00A1FF",
"<	c #009BFF",
"[	c #0095FF",
"}	c #0097FF",
"                ",
"    .++++++++++ ",
"   @         @# ",
"  $       %%% $ ",
" &&*&=&*&=-;- * ",
" >        --- > ",
" ,         ,  ' ",
" )         )  ) ",
" !         !  ~ ",
" {         ]  ] ",
" ^         ^  ^ ",
" /         /  ( ",
" _         : _  ",
" <         <<   ",
" [[[[[[[[}[[    ",
"                "};
