/* XPM */
static char *modify_faces[] = {
/* columns rows colors chars-per-pixel */
"16 16 3 1 ",
"  c None",
". c black",
"X c #00C000",
/* pixels */
"                ",
"    ........... ",
"   .         .. ",
"  .         . . ",
" ...........  . ",
" .XXXXXXXXX.  . ",
" .XXXXXXXXX.  . ",
" .XXXXXXXXX.  . ",
" .XXXXXXXXX.  . ",
" .XXXXXXXXX.  . ",
" .XXXXXXXXX.  . ",
" .XXXXXXXXX.  . ",
" .XXXXXXXXX. .  ",
" .XXXXXXXXX..   ",
" ...........    ",
"                "
};
