/* XPM */
static char * paste_xpm[] = {
"20 19 55 1",
" 	c None",
".	c #00CBED",
"+	c #00C9F3",
"@	c #00C9F1",
"#	c #86FFF1",
"$	c #88FFF3",
"%	c #00C9F7",
"&	c #0BFFF7",
"*	c #0DFFFF",
"=	c #0DFFF7",
"-	c #00C7F9",
";	c #8CFFF9",
">	c #00C7F7",
",	c #8CFFF7",
"'	c #0DFFF9",
")	c #00C5FD",
"!	c #11FFFF",
"~	c #00C5FF",
"{	c #68FFFF",
"]	c #00C7FF",
"^	c #00C3FF",
"/	c #0FFFFF",
"(	c #8EFFFF",
"_	c #00C1FF",
":	c #00BDFF",
"<	c #0BFFFF",
"[	c #00BBFF",
"}	c #00B7FF",
"|	c #07FFFF",
"1	c #09FFFF",
"2	c #00B3FF",
"3	c #05FFFF",
"4	c #84FFFF",
"5	c #86FFFF",
"6	c #00B5FF",
"7	c #00AFFF",
"8	c #03FFFF",
"9	c #01FFFF",
"0	c #80FFFF",
"a	c #82FFFF",
"b	c #00A9FF",
"c	c #00FFFF",
"d	c #00ABFF",
"e	c #7CFFFF",
"f	c #7EFFFF",
"g	c #00A5FF",
"h	c #7AFFFF",
"i	c #009FFF",
"j	c #78FFFF",
"k	c #00A1FF",
"l	c #009BFF",
"m	c #72FFFF",
"n	c #74FFFF",
"o	c #0095FF",
"p	c #0097FF",
"                    ",
"                    ",
"                    ",
"       ....         ",
"   ++@++#$++++@     ",
"  %&*=-;%>,-*'*-    ",
"  )!!~{{{{{{]!!)    ",
"  ^/(____^__^//_    ",
"  :<<***<<*<<<<[    ",
"  }||1||}}}}}}}}    ",
"  233|3324445462    ",
"  788999700aaa707   ",
"  bcccccdedddfbdbb  ",
"  gcccccghhhhhhhhg  ",
"  icccccijkkkkkiji  ",
"   llllllmmnmmnmnl  ",
"        ooopooooop  ",
"                    ",
"                    "};
