/* XPM */
static char * patch_wireframe_xpm[] = {
"16 15 28 1",
" 	c None",
".	c #027486",
"+	c #017387",
"@	c #9AEFFE",
"#	c #007388",
"$	c #007288",
"%	c #99EEFF",
"&	c #007188",
"*	c #007088",
"=	c #99EDFF",
"-	c #006F88",
";	c #006E88",
">	c #99EBFF",
",	c #006D88",
"'	c #99EAFF",
")	c #006B88",
"!	c #99E9FF",
"~	c #006C88",
"{	c #006A88",
"]	c #99E8FF",
"^	c #006888",
"/	c #99E7FF",
"(	c #006788",
"_	c #99E6FF",
":	c #006588",
"<	c #99E5FF",
"[	c #006688",
"}	c #006488",
"                ",
"                ",
"                ",
"         .      ",
"        +@#     ",
"       $%%$&    ",
"      **=*==*   ",
"   -;;>>;>>;>;  ",
"  ,>',',',,'>', ",
" )!'~)~!')')'~  ",
"  {{]]!{{!!]{   ",
"   ^//^^^//^    ",
"    ((__(((     ",
"     :<[        ",
"      }         "};
