/* XPM */
static char * patch_showboundingbox_xpm[] = {
"16 15 49 1",
" 	c None",
".	c #067682",
"+	c #077681",
"@	c #047584",
"#	c #08DCF7",
"$	c #9DF1FB",
"%	c #08DBF7",
"&	c #9CF1FC",
"*	c #09DCF6",
"=	c #037585",
"-	c #9BF0FD",
";	c #04D9FB",
">	c #037485",
",	c #017387",
"'	c #01D7FE",
")	c #99EFFF",
"!	c #9AEFFE",
"~	c #007388",
"{	c #007288",
"]	c #007188",
"^	c #99EEFF",
"/	c #00D4FF",
"(	c #007088",
"_	c #00D2FF",
":	c #99EDFF",
"<	c #99ECFF",
"[	c #006F88",
"}	c #006E88",
"|	c #99EBFF",
"1	c #00CEFF",
"2	c #006D88",
"3	c #00CCFF",
"4	c #99EAFF",
"5	c #006B88",
"6	c #99E9FF",
"7	c #00CAFF",
"8	c #006C88",
"9	c #006A88",
"0	c #00C6FF",
"a	c #99E8FF",
"b	c #006888",
"c	c #99E7FF",
"d	c #00C4FF",
"e	c #006788",
"f	c #00C1FF",
"g	c #99E6FF",
"h	c #00C2FF",
"i	c #006688",
"j	c #006588",
"                ",
" ...+.......... ",
" @#$%&*&#&#&*$@ ",
" =-----------;> ",
" ,')!!!)!,~!)!{ ",
" ]^^^^^{]^^^^/] ",
" (_:::(::::::<[ ",
" }|<|}|||||||1} ",
" 23|42444|44|42 ",
" 56445464444478 ",
" 90aaa99666aa69 ",
" bccccccbbcccdb ",
" efgfgfghchchge ",
" iiiijiiijiijij ",
"                "};
