/* XPM */
static char * patch_drilldown_xpm[] = {
"16 15 18 1",
" 	c None",
".	c #00CBFF",
"+	c #00C9FF",
"@	c #00C7FF",
"#	c #19C7FD",
"$	c #17C1FF",
"%	c #00BDFF",
"&	c #00B7FF",
"*	c #00B3FF",
"=	c #00B5FF",
"-	c #0BAFFF",
";	c #00A9FF",
">	c #00ABFF",
",	c #00A5FF",
"'	c #00A3FF",
")	c #00A1FF",
"!	c #009FFF",
"~	c #009BFF",
"                ",
"  ...           ",
"  +++           ",
"  @@@           ",
"     #          ",
"      $         ",
"       %%%      ",
"       &&&      ",
"       **=      ",
"          -     ",
"           ;;>  ",
"           ,',  ",
"           ))!  ",
"              ~ ",
"                "};
