/* XPM */
static char * patch_weld_xpm[] = {
"16 15 39 1",
" 	c None",
".	c #84E6F3",
"+	c #84E5F6",
"@	c #83E4F9",
"#	c #83E3FC",
"$	c #46E304",
"%	c #46E403",
"&	c #83E2FF",
"*	c #83E2FE",
"=	c #48E277",
"-	c #83E0FF",
";	c #83E1FF",
">	c #47E177",
",	c #47E077",
"'	c #83DEFF",
")	c #46DE00",
"!	c #45DE77",
"~	c #46DE77",
"{	c #45DE00",
"]	c #83DCFF",
"^	c #84DBFF",
"/	c #44DB77",
"(	c #84D9FF",
"_	c #43D9FF",
":	c #42D9FF",
"<	c #42DAFF",
"[	c #84D6FF",
"}	c #40D600",
"|	c #41D7FF",
"1	c #40D7FF",
"2	c #84D4FF",
"3	c #3FD5FF",
"4	c #3FD4FF",
"5	c #84D2FF",
"6	c #3DD2FF",
"7	c #84CFFF",
"8	c #3BD0FF",
"9	c #3CCFFF",
"0	c #84CDFF",
" .              ",
"   +            ",
"    @           ",
"    ## $  %     ",
"   &  * =       ",
" -;    >,,      ",
"  '  ) !~! {    ",
"   ]   ^/       ",
"    ( (   _:<:< ",
"     [ }  ||11  ",
"    2     344   ",
" 5 5      66 6  ",
"  7       8   9 ",
" 0              ",
"                "};
