/* XPM */
static char * patch_bend_xpm[] = {
"16 15 38 1",
" 	c None",
".	c #00CBE7",
"+	c #00CDE7",
"@	c #00CBED",
"#	c #51FFFF",
"$	c #4FFFFF",
"%	c #00C9F3",
"&	c #53FFFF",
"*	c #55FFFF",
"=	c #00C9F1",
"-	c #00CBF3",
";	c #00C7F7",
">	c #00C7F9",
",	c #59FFFF",
"'	c #57FFFF",
")	c #00C9F9",
"!	c #00C7FD",
"~	c #00C5FD",
"{	c #5DFFFF",
"]	c #00C3FF",
"^	c #00C1FF",
"/	c #5BFFFF",
"(	c #00BDFF",
"_	c #00BBFF",
":	c #00B7FF",
"<	c #00B9FF",
"[	c #00B5FF",
"}	c #00B3FF",
"|	c #00AFFF",
"1	c #4DFFFF",
"2	c #00A9FF",
"3	c #00ABFF",
"4	c #4BFFFF",
"5	c #00A5FF",
"6	c #00A3FF",
"7	c #47FFFF",
"8	c #009FFF",
"9	c #00A1FF",
"    .++++       ",
"   @##$$@@@     ",
"  %&**=-&&&%    ",
"  ;;>>,,,'))>   ",
"     !~{{!{{{~  ",
"       ]^////^  ",
"   (    ('''(__ ",
"  :<:    :*:**: ",
"   [     [}###[ ",
"   |      |$11| ",
"   2   2  34442 ",
"  5555566 5775  ",
"  88   9  999   ",
"                ",
"                "};
