/* XPM */
static char * patch_insdel_xpm[] = {
"16 15 33 1",
" 	c None",
".	c #46E373",
"+	c #45E374",
"@	c #46E374",
"#	c #46E473",
"$	c #48E376",
"%	c #47E077",
"&	c #45DE77",
"*	c #46DE77",
"=	c #44DB77",
"-	c #43DA77",
";	c #42D977",
">	c #42DA77",
",	c #47D6FF",
"'	c #40D777",
")	c #40D677",
"!	c #48D7FF",
"~	c #48D6FF",
"{	c #47D7FF",
"]	c #3FD477",
"^	c #3FD577",
"/	c #3ED477",
"(	c #3DD277",
"_	c #3BCFFF",
":	c #3CD0FF",
"<	c #3BD077",
"[	c #3BCF77",
"}	c #39CDFF",
"|	c #39CD77",
"1	c #3ACD77",
"2	c #38CAFF",
"3	c #37CAFF",
"4	c #38CA77",
"                ",
"                ",
"                ",
"  ..+@#..+      ",
"         $      ",
"         %      ",
"       &*&&&    ",
"        ===     ",
"   -;;   >  >;> ",
"  ,'')!~!{{{'''!",
"   ]]]      ]^/ ",
"             (  ",
"     _ :   < [  ",
"      }   ||1|  ",
"     2 3   4    "};
