/* XPM */
static char *patch_wireframe[] = {
/* columns rows colors chars-per-pixel */
"16 15 3 1 ",
"  c None",
". c #880000",
"X c gray80",
/* pixels */
"                ",
"                ",
"                ",
"         .      ",
"        .X.     ",
"       .XX..    ",
"      ..X.XX.   ",
"   ...XX.XX.X.  ",
"  .XX.X.X..XXX. ",
" .XX...XX.X.X.  ",
"  ..XXX..XXX.   ",
"   .XX...XX.    ",
"    ..XX...     ",
"     .X.        ",
"      .         "
};
