/* XPM */
static char * popup_selection_xpm[] = {
"16 15 23 1",
" 	c None",
".	c #0CDEF3",
"+	c #09DCF6",
"@	c #FFFFFF",
"#	c #01D7FE",
"$	c #00D8FF",
"%	c #00D7FF",
"&	c #00D4FF",
"*	c #00D2FF",
"=	c #007088",
"-	c #006E88",
";	c #00CCFF",
">	c #006D88",
",	c #00CDFF",
"'	c #00C8FF",
")	c #006C88",
"!	c #00CAFF",
"~	c #00C1FF",
"{	c #00C2FF",
"]	c #000000",
"^	c #11C3FF",
"/	c #11C0FF",
"(	c #11C1FF",
"                ",
" ..  ..  ..  .. ",
"      +         ",
"        @       ",
" #   @    $   % ",
" &       @    & ",
"    * * ====    ",
"     @  ---     ",
" ;      >>    , ",
" '     @)     ! ",
"                ",
"                ",
" ~~  ~~  {{  ]]]",
"             ]^^",
"             ]/("};
