/* XPM */
static char * redo_xpm[] = {
"16 16 17 1",
" 	c None",
".	c #47E0FF",
"+	c #47E1FF",
"@	c #46DEFF",
"#	c #45DEFF",
"$	c #46DDFF",
"%	c #43DBFF",
"&	c #44DBFF",
"*	c #42D9FF",
"=	c #42DAFF",
"-	c #41D6FF",
";	c #41D7FF",
">	c #40D7FF",
",	c #3FD4FF",
"'	c #3ED5FF",
")	c #3FD5FF",
"!	c #3DD2FF",
"                ",
"                ",
"                ",
"                ",
"                ",
"    ...+        ",
"   @    @#   $  ",
"  %       & &&  ",
"  *        *=*  ",
"  -       ;;>>  ",
"   ,     '),,)  ",
"   !            ",
"                ",
"                ",
"                ",
"                "};
