/* XPM */
static char * refresh_models_xpm[] = {
"16 16 72 1",
" 	c None",
".	c #3FCBE7",
"+	c #3FCDE7",
"@	c #41CDE7",
"#	c #43CBED",
"$	c #84FFEB",
"%	c #84FFED",
"&	c #82FFED",
"*	c #49C9F3",
"=	c #86FFF3",
"-	c #86FFF1",
";	c #88FFF3",
">	c #49C9F1",
",	c #47C9F1",
"'	c #47C9F3",
")	c #4BC9F7",
"!	c #8CFFF7",
"~	c #4DC7F7",
"{	c #4BC7F9",
"]	c #4DC7F9",
"^	c #4DC9F7",
"/	c #8AFFF9",
"(	c #8CFFF9",
"_	c #51C5FD",
":	c #90FFFD",
"<	c #51C7FD",
"[	c #90FFFF",
"}	c #4FC3FF",
"|	c #4FC1FF",
"1	c #8EFFFF",
"2	c #4BBDFF",
"3	c #8AFFFF",
"4	c #8CFFFF",
"5	c #4BBBFF",
"6	c #49B7FF",
"7	c #47B7FF",
"8	c #49B9FF",
"9	c #88FFFF",
"0	c #86FFFF",
"a	c #47B9FF",
"b	c #45B3FF",
"c	c #84FFFF",
"d	c #45B5FF",
"e	c #47B3FF",
"f	c #47B5FF",
"g	c #41AFFF",
"h	c #82FFFF",
"i	c #80FFFF",
"j	c #41ADFF",
"k	c #3FA9FF",
"l	c #7EFFFF",
"m	c #3DA9FF",
"n	c #3BA5FF",
"o	c #7AFFFF",
"p	c #78FFFF",
"q	c #3BA3FF",
"r	c #399FFF",
"s	c #76FFFF",
"t	c #37A1FF",
"u	c #39A1FF",
"v	c #359BFF",
"w	c #72FFFF",
"x	c #339BFF",
"y	c #74FFFF",
"z	c #2F97FF",
"A	c #2F95FF",
"B	c #3195FF",
"C	c #70FFFF",
"D	c #6EFFFF",
"E	c #2D91FF",
"F	c #2D8FFF",
"G	c #2B91FF",
"    .++@@+     .",
"  ##$%&&&%##  ##",
" *=-;;-;===;>,;'",
" )!~{]^~!/((((!]",
"_:_     _<[:[:[_",
"}|        }1111|",
"2         233435",
"67787767 690990a",
"bcc0ccb bdebdbdf",
"ghhiij         g",
"kllllk        mm",
"noooponq     non",
"rsssssspttttusr ",
"vwxxwywwwywwywv ",
"zA  ABCDCCCCAB  ",
"E     FEEGEE    "};
