/* XPM */
static char *scalelockx[] = {
/* columns rows colors chars-per-pixel */
"16 15 4 1 ",
"  c None",
". c black",
"X c blue",
"o c white",
/* pixels */
"                ",
" .............. ",
" .oooooooooooo. ",
" .oooooooooooo. ",
" .oooXXooXXooo. ",
" .oooXXooXXooo. ",
" .ooooXXXXoooo. ",
" .oooooXXooooo. ",
" .ooooXXXXoooo. ",
" .oooXXooXXooo. ",
" .oooXXooXXooo. ",
" .oooooooooooo. ",
" .oooooooooooo. ",
" .............. ",
"                "
};
