/* XPM */
static char *selection_makeroom[] = {
/* columns rows colors chars-per-pixel */
"16 16 3 1 ",
"  c None",
". c black",
"X c #00C0FF",
/* pixels */
"                ",
" XXX XXX XXX XX ",
" X            X ",
" X ..........   ",
"   .        . X ",
" X .        . X ",
" X .        . X ",
" X .        .   ",
"   .        . X ",
" X .        . X ",
" X .        . X ",
" X .        .   ",
"   .......... X ",
" X            X ",
" XX XXX XXX XXX ",
"                "
};
