/* XPM */
static char * selection_selectpartialtall_xpm[] = {
"16 16 13 1",
" 	c None",
".	c #000000",
"+	c #01A2BF",
"@	c #00A0C0",
"#	c #009EC0",
"$	c #009BC0",
"%	c #0099C0",
"&	c #0097C0",
"*	c #0098C0",
"=	c #0095C0",
"-	c #0096C0",
";	c #0093C0",
">	c #0092C0",
"                ",
" ...... ....... ",
" .    . .     . ",
" .    . .     . ",
" +    + +     . ",
" @    @ @     . ",
" #    # #     . ",
" $    $ $$$$$.. ",
" %    %         ",
" &    * *****.. ",
" =    - -     . ",
" ;    ; >     . ",
" .    . .     . ",
" .    . .     . ",
" ...... ....... ",
"                "};
