/* XPM */
static char * selection_csgmerge_xpm[] = {
"16 16 44 1",
" 	c None",
".	c #41E5F6",
"+	c #42E5F5",
"@	c #41FFFF",
"#	c #42FFFF",
"$	c #43E4F8",
"%	c #44E4F9",
"&	c #44FFFF",
"*	c #43FFFF",
"=	c #46E4FB",
"-	c #45E3FC",
";	c #46FFFF",
">	c #48E2FE",
",	c #48FFFF",
"'	c #47E1FF",
")	c #47E0FF",
"!	c #47FFFF",
"~	c #45DEFF",
"{	c #46DEFF",
"]	c #45FFFF",
"^	c #44DBFF",
"/	c #43DBFF",
"(	c #44DCFF",
"_	c #42D9FF",
":	c #40D7FF",
"<	c #40FFFF",
"[	c #3FD4FF",
"}	c #3EFFFF",
"|	c #3FFFFF",
"1	c #3DD2FF",
"2	c #3CD2FF",
"3	c #3DFFFF",
"4	c #3CCFFF",
"5	c #3BCFFF",
"6	c #3BFFFF",
"7	c #3ACDFF",
"8	c #39CDFF",
"9	c #39FFFF",
"0	c #3AFFFF",
"a	c #37CBFF",
"b	c #37CAFF",
"c	c #38CAFF",
"d	c #38FFFF",
"e	c #37FFFF",
"                ",
"....+      @@#@@",
"$   %      &   *",
"=   -      ;   ;",
">   > ,    ,   ,",
"'   ) !!   !   !",
"~   { ]];  ]   ]",
"^//(/ &*&& *   *",
"_   _ ###  #   *",
":   : <<   @   <",
"[   [ }    |   }",
"1   2      3   3",
"4   5      6   6",
"7   8      9   0",
"abcbb      deddd",
"                "};
