/* XPM */
static char * select_autoexpand_xpm[] = {
"16 16 3 1",
" 	c None",
".	c #46E3FB",
"+	c #2C909F",
"                ",
" .............. ",
" .            . ",
" .    ..      . ",
" .  .. +..    . ",
" .  ..+ ..+   . ",
" .  ..+ ..+   . ",
" .  ......+   . ",
" .  ..++..+   . ",
" .  ..+ ..+   . ",
" .  ..+ ..+   . ",
" .  ..+ ..+   . ",
" .   ++  ++   . ",
" .            . ",
" .............. ",
"                "};
