/* XPM */
static char *select_mouserotate[] = {
/* columns rows colors chars-per-pixel */
"16 16 3 1 ",
"  c None",
". c black",
"X c blue",
/* pixels */
"                ",
"     XXXX       ",
"   XX    XX     ",
"  X        X    ",
" X ........ X   ",
" X .      . X   ",
"X  .      .  X  ",
"X  .      .XXXXX",
"X  .      . XXX ",
"X  .      .  X  ",
" X .      .     ",
" X ........     ",
"  X             ",
"   XX           ",
"     XX         ",
"                "
};
