/* XPM */
static char * select_mousetranslate_xpm[] = {
"16 16 12 1",
" 	c None",
".	c #000000",
"+	c #01D8FE",
"@	c #00D4FF",
"#	c #00D2FF",
"$	c #00D0FF",
"%	c #00CEFF",
"&	c #00CCFF",
"*	c #00CDFF",
"=	c #00C9FF",
"-	c #00CAFF",
";	c #00C6FF",
"                ",
" .......        ",
" .     .        ",
" .     .        ",
" .     .   +    ",
" .     .   @@   ",
" .     .   ##$  ",
" .     .%%%%%%% ",
" .     .   &*&  ",
" .     .   =-   ",
" .     .   ;    ",
" .     .        ",
" .     .        ",
" .     .        ",
" .......        ",
"                "};
