/* XPM */
static char *selection_selecttouching[] = {
/* columns rows colors chars-per-pixel */
"16 16 3 1 ",
"  c None",
". c black",
"X c #C00000",
/* pixels */
"                ",
" XXXXXXXXXXXXXX ",
" X            X ",
" X            X ",
" XXXXXXXXXXXXXX ",
"      X  X      ",
" .... X  X .... ",
" .  . X  X .  . ",
" .  . X  X .  . ",
" .  . X  X .  . ",
" .  . X  X .  . ",
" .  . X  X .  . ",
" .  . X  X .  . ",
" .  . X  X .  . ",
" .... XXXX .... ",
"                "
};
