/* XPM */
static char *select_mousetranslate[] = {
/* columns rows colors chars-per-pixel */
"16 16 3 1 ",
"  c None",
". c black",
"X c blue",
/* pixels */
"                ",
" .......        ",
" .     .        ",
" .     .        ",
" .     .   X    ",
" .     .   XX   ",
" .     .   XXX  ",
" .     .XXXXXXX ",
" .     .   XXX  ",
" .     .   XX   ",
" .     .   X    ",
" .     .        ",
" .     .        ",
" .     .        ",
" .......        ",
"                "
};
