/* XPM */
static char * select_additive_xpm[] = {
"16 16 3 1",
" 	c None",
".	c #46E3FB",
"+	c #23727E",
"                ",
" .............. ",
" .            . ",
" .            . ",
" .     .      . ",
" .     .+     . ",
" .     .+     . ",
" .  .......   . ",
" .   ++.++++  . ",
" .     .+     . ",
" .     .+     . ",
" .      +     . ",
" .            . ",
" .            . ",
" .............. ",
"                "};
