/* XPM */
static char * selection_selectcompletetall_xpm[] = {
"16 16 27 1",
" 	c None",
".	c #09A7B7",
"+	c #0AA7B6",
"@	c #06A5BA",
"#	c #04A5BC",
"$	c #04A4BC",
"%	c #01A2BF",
"&	c #00A2C0",
"*	c #00A0C0",
"=	c #00A1C0",
"-	c #009EC0",
";	c #009DC0",
">	c #009BC0",
",	c #0099C0",
"'	c #009AC0",
")	c #0097C0",
"!	c #0098C0",
"~	c #0095C0",
"{	c #0096C0",
"]	c #0093C0",
"^	c #0094C0",
"/	c #0092C0",
"(	c #0091C0",
"_	c #0090C0",
":	c #008FC0",
"<	c #008DC0",
"[	c #008EC0",
"                ",
" ...+.......... ",
" @            @ ",
" #            $ ",
" %            & ",
" *=****=**=**** ",
" -  -      -  ; ",
" >  > >>>> >  > ",
" ,  , ,  ' ,  ' ",
" )  ! !  ! !  ! ",
" ~  ~ {  { ~  ~ ",
" ]  ^ ]  ] ]  / ",
" (  ( (  / /  ( ",
" _  _ _  : _  : ",
" <<<< <<<[ <<<< ",
"                "};
