/* XPM */
static char * selection_makehollow_xpm[] = {
"16 16 39 1",
" 	c None",
".	c #41E5F6",
"+	c #42E5F5",
"@	c #42E5F6",
"#	c #44E4F9",
"$	c #45E4FB",
"%	c #46FFFF",
"&	c #45FFFF",
"*	c #46E3FB",
"=	c #48E2FE",
"-	c #48FFFF",
";	c #48E2FF",
">	c #47E0FF",
",	c #47FFFF",
"'	c #45DEFF",
")	c #45DDFF",
"!	c #43DBFF",
"~	c #44FFFF",
"{	c #42D9FF",
"]	c #43FFFF",
"^	c #42DAFF",
"/	c #41D6FF",
"(	c #40FFFF",
"_	c #40D7FF",
":	c #3FD4FF",
"<	c #3FFFFF",
"[	c #3ED4FF",
"}	c #3DD2FF",
"|	c #3DFFFF",
"1	c #3DD1FF",
"2	c #3BCFFF",
"3	c #3BFFFF",
"4	c #3CFFFF",
"5	c #3CCFFF",
"6	c #39CDFF",
"7	c #3ACDFF",
"8	c #37CAFF",
"9	c #38CAFF",
"0	c #38CBFF",
"                ",
" ...+@...@...@. ",
" #            # ",
" $ %& %% &% % * ",
" =          - ; ",
" > ,          > ",
" ' %        & ) ",
" !          ~ ! ",
" { ]          ^ ",
" / (        ( _ ",
" :          < [ ",
" } |          1 ",
" 2 3 33 33 34 5 ",
" 6            7 ",
" 89889989099899 ",
"                "};
