/* XPM */
static char * selection_selecttouching_xpm[] = {
"16 16 46 1",
" 	c None",
".	c #C8E5F6",
"+	c #C9E5F5",
"@	c #C9E5F6",
"#	c #C9E4F9",
"$	c #C9E4FB",
"%	c #CAE3FB",
"&	c #CAE2FE",
"*	c #CAE2FF",
"=	c #CAE3FE",
"-	c #CAE3FF",
";	c #CAE0FF",
">	c #45DEFF",
",	c #46DEFF",
"'	c #C9DEFF",
")	c #46DDFF",
"!	c #45DDFF",
"~	c #43DBFF",
"{	c #C9DBFF",
"]	c #42D9FF",
"^	c #C9D9FF",
"/	c #C9DAFF",
"(	c #42DAFF",
"_	c #41D6FF",
":	c #40D7FF",
"<	c #C8D7FF",
"[	c #41D7FF",
"}	c #3FD4FF",
"|	c #C8D5FF",
"1	c #3ED4FF",
"2	c #3DD2FF",
"3	c #3CD2FF",
"4	c #C7D2FF",
"5	c #3DD1FF",
"6	c #3BCFFF",
"7	c #C7CFFF",
"8	c #C7D0FF",
"9	c #3BD0FF",
"0	c #3CCFFF",
"a	c #39CDFF",
"b	c #C7CDFF",
"c	c #3ACDFF",
"d	c #37CAFF",
"e	c #38CAFF",
"f	c #C6CAFF",
"g	c #C6CBFF",
"                ",
" ...+@...@...@. ",
" #            # ",
" $            % ",
" &&*&=&*&=-=-&* ",
"      ;  ;      ",
" >>,, '  ' >>)! ",
" ~  ~ {  { ~  ~ ",
" ]  ] ^  / ]  ( ",
" _  : <  < [  : ",
" }  } |  | }  1 ",
" 2  3 4  4 2  5 ",
" 6  6 7  8 9  0 ",
" a  a b  b a  c ",
" dedd fffg edee ",
"                "};
