/* XPM */
static char * selection_csgsubtract_xpm[] = {
"16 16 44 1",
" 	c None",
".	c #41E5F6",
"+	c #42E5F5",
"@	c #42E5F6",
"#	c #44E4F9",
"$	c #45E4FB",
"%	c #46E4FC",
"&	c #46E3FB",
"*	c #48E2FE",
"=	c #47E2FF",
"-	c #48E3FE",
";	c #48E2FF",
">	c #48E3FF",
",	c #47E0FF",
"'	c #47FFFF",
")	c #45DEFF",
"!	c #46DEFF",
"~	c #46FFFF",
"{	c #45FFFF",
"]	c #45DDFF",
"^	c #43DBFF",
"/	c #44FFFF",
"(	c #42D9FF",
"_	c #42FFFF",
":	c #42DAFF",
"<	c #41D6FF",
"[	c #40D7FF",
"}	c #40FFFF",
"|	c #41FFFF",
"1	c #41D7FF",
"2	c #3FD4FF",
"3	c #3FFFFF",
"4	c #3EFFFF",
"5	c #3ED4FF",
"6	c #3DD2FF",
"7	c #3CD2FF",
"8	c #3DD1FF",
"9	c #3BCFFF",
"0	c #3CCFFF",
"a	c #39CDFF",
"b	c #3ACDFF",
"c	c #37CAFF",
"d	c #38CAFF",
"e	c #38CBFF",
"                ",
" ...+@...@...@. ",
" #         #  # ",
" $         %  & ",
" **=*-*;*->-  ; ",
" ,  , ' ' ',  , ",
" )  !~ { { )  ] ",
" ^  ^ / / /^  ^ ",
" (  (_ _ _ (  : ",
" <  [ } } |1  [ ",
" 2  23 4 4 2  5 ",
" 6  76688666868 ",
" 9  9         0 ",
" a  a         b ",
" cdccddcdeddcdd ",
"                "};
