/* XPM */
static char *selection_selectcompletetall[] = {
/* columns rows colors chars-per-pixel */
"16 16 2 1 ",
"  c None",
". c #C00000",
/* pixels */
"                ",
" .............. ",
" .            . ",
" .            . ",
" .            . ",
" .............. ",
" .  .      .  . ",
" .  . .... .  . ",
" .  . .  . .  . ",
" .  . .  . .  . ",
" .  . .  . .  . ",
" .  . .  . .  . ",
" .  . .  . .  . ",
" .  . .  . .  . ",
" .... .... .... ",
"                "
};
