/* XPM */
static char * select_mouserotate_xpm[] = {
"16 16 23 1",
" 	c None",
".	c #00CBFF",
"+	c #00C9FF",
"@	c #00C7FF",
"#	c #00C5FF",
"$	c #00C5FD",
"%	c #00C7FD",
"&	c #00C1FF",
"*	c #00C3FF",
"=	c #00BDFF",
"-	c #00BBFF",
";	c #00B7FF",
">	c #00B9FF",
",	c #00B3FF",
"'	c #00B5FF",
")	c #00AFFF",
"!	c #00A9FF",
"~	c #00ABFF",
"{	c #00A5FF",
"]	c #00A3FF",
"^	c #009FFF",
"/	c #009BFF",
"(	c #0095FF",
"                ",
"     ....       ",
"   ++    ++     ",
"  @        +    ",
" # #$%$#$%@ @   ",
" & &      * &   ",
"=  =      =  -  ",
";  >      ;;;;;>",
",  '      , ',' ",
")  )      )  )  ",
" ! !      ~     ",
" { {{{{]]{{     ",
"  ^             ",
"   //           ",
"     ((         ",
"                "};
