/* XPM */
static char *select_mousescale[] = {
/* columns rows colors chars-per-pixel */
"16 16 3 1 ",
"  c None",
". c black",
"X c blue",
/* pixels */
"                ",
"  XXX XXX XXX   ",
"                ",
" X      XXXXX X ",
" X       XXXX X ",
" X        XXX X ",
"         X XX   ",
" ........   X X ",
" .      .     X ",
" .      .     X ",
" .      .       ",
" .      .     X ",
" .      .     X ",
" .      .     X ",
" ........ XXX   ",
"                "
};
