/* XPM */
static char * selection_selectinside_xpm[] = {
"16 16 54 1",
" 	c None",
".	c #C8E5F6",
"+	c #C9E5F5",
"@	c #C9E5F6",
"#	c #41E5F6",
"$	c #42E5F6",
"%	c #C9E4F9",
"&	c #44E4F9",
"*	c #C9E4FB",
"=	c #CAE3FB",
"-	c #C9E3FC",
";	c #CAE3FC",
">	c #CAE4FB",
",	c #46E4FC",
"'	c #46E3FB",
")	c #CAE2FE",
"!	c #CAE2FF",
"~	c #48E3FE",
"{	c #48E2FF",
"]	c #CAE0FF",
"^	c #CAE1FF",
"/	c #47E0FF",
"(	c #C9DEFF",
"_	c #CADEFF",
":	c #45DEFF",
"<	c #45DDFF",
"[	c #C9DBFF",
"}	c #C9DCFF",
"|	c #43DBFF",
"1	c #C9DAFF",
"2	c #42D9FF",
"3	c #42DAFF",
"4	c #C8D6FF",
"5	c #C8D7FF",
"6	c #41D7FF",
"7	c #40D7FF",
"8	c #C8D4FF",
"9	c #C8D5FF",
"0	c #3FD4FF",
"a	c #3ED4FF",
"b	c #C7D2FF",
"c	c #3DD2FF",
"d	c #3DD1FF",
"e	c #C7CFFF",
"f	c #C7D0FF",
"g	c #3BD0FF",
"h	c #3CCFFF",
"i	c #C7CDFF",
"j	c #39CDFF",
"k	c #3ACDFF",
"l	c #C6CAFF",
"m	c #C6CBFF",
"n	c #38CAFF",
"o	c #37CAFF",
"                ",
" .. +@ ..  ##$# ",
"         % &  & ",
" * =-;>= - ,  ' ",
" ) !   !   ~  { ",
"   ]   ^ ] /  / ",
" ( _   ( ( :  < ",
" [ }[[[[   |  | ",
"         1 2  3 ",
" 4 5545  5 6  7 ",
" 8 8  9    0  a ",
"   b  b  b c  d ",
" e eeee  f g  h ",
" i         j  k ",
"  ll ll lm nonn ",
"                "};
