/* XPM */
static char * selection_makeroom_xpm[] = {
"16 16 38 1",
" 	c None",
".	c #41FFFF",
"+	c #42FFFF",
"@	c #44FFFF",
"#	c #45FFFF",
"$	c #46E3FB",
"%	c #45E3FC",
"&	c #46E3FC",
"*	c #46E4FB",
"=	c #46E4FC",
"-	c #47E2FF",
";	c #48E3FF",
">	c #48FFFF",
",	c #47FFFF",
"'	c #47E0FF",
")	c #46DEFF",
"!	c #45DEFF",
"~	c #43FFFF",
"{	c #44DCFF",
"]	c #44DBFF",
"^	c #43DAFF",
"/	c #42DAFF",
"(	c #40D7FF",
"_	c #40FFFF",
":	c #3FFFFF",
"<	c #3FD4FF",
"[	c #3EFFFF",
"}	c #3DFFFF",
"|	c #3DD2FF",
"1	c #3DD1FF",
"2	c #3BCFFF",
"3	c #3CD0FF",
"4	c #3BD0FF",
"5	c #3CFFFF",
"6	c #39FFFF",
"7	c #3AFFFF",
"8	c #37FFFF",
"9	c #38FFFF",
"                ",
" ... +.. +.. +. ",
" @            @ ",
" # $%&*$$%==&   ",
"   -        ; > ",
" , '        ' , ",
" # )        ! # ",
" ~ {        ]   ",
"   ^        / + ",
" . (        ( _ ",
" : <        < [ ",
" } |        1   ",
"   2222344443 5 ",
" 6            7 ",
" 89 899 999 899 ",
"                "};
