/* XPM */
static char * show_entities_xpm[] = {
"16 15 6 1",
" 	c None",
".	c #FFFFFF",
"+	c #FF0000",
"@	c #FF00FF",
"#	c #0000FF",
"$	c #00FFFF",
"                ",
" ........       ",
" .++++++..      ",
" .++++++.+.     ",
" .+@+++@.+@.    ",
" .@@@@@@.@@.    ",
" .@@@@@@.@@.    ",
" .@@@@@@.@@.    ",
" .@@@@@@.@@.    ",
" ........@@.    ",
"  .@@@@@@.@.    ",
"   .@@@@@@..    ",
"    ........ ###",
"             #$$",
"             #$$"};
