/* XPM */
static char *side_patch[] = {
/* columns rows colors chars-per-pixel */
"40 32 119 2 ",
"   c None",
".  c #0C0C0C",
"X  c #0C0E23",
"o  c #0C0E24",
"O  c #0D0F27",
"+  c #0D1028",
"@  c #0F122D",
"#  c #101330",
"$  c #111433",
"%  c #131638",
"&  c #13173A",
"*  c #450000",
"=  c #4F0000",
"-  c #520000",
";  c #5C0000",
":  c #5D0000",
">  c #670000",
",  c #690000",
"<  c #740000",
"1  c #7F0000",
"2  c #7F0100",
"3  c #7F0001",
"4  c #7F0101",
"5  c #171B42",
"6  c #1E235A",
"7  c #1E245B",
"8  c #232968",
"9  c #232969",
"0  c #242A6B",
"q  c #242A6C",
"w  c #262D72",
"e  c #272D74",
"r  c #2E3477",
"t  c #29307B",
"y  c #29317C",
"u  c #800100",
"i  c #800001",
"p  c #800101",
"a  c #820202",
"s  c #8C0C0C",
"d  c #8D0E0C",
"f  c #8D0C0E",
"g  c #8D0E0E",
"h  c #981919",
"j  c #991919",
"k  c #981A19",
"l  c #991A19",
"z  c #98191A",
"x  c #99191A",
"c  c #981A1A",
"v  c #991A1A",
"b  c #9F2420",
"n  c #9F2421",
"m  c #A12420",
"M  c #A12421",
"N  c #A42424",
"B  c #AC302D",
"V  c #AD312E",
"C  c #B03131",
"Z  c #B13131",
"A  c #B33331",
"S  c #B33133",
"D  c #B13333",
"F  c #B33333",
"G  c #B73C38",
"H  c #B93D3A",
"J  c #C44846",
"K  c #D05452",
"L  c #DC5F5C",
"P  c #DD5F5C",
"I  c #DC5F5D",
"U  c #DC615C",
"Y  c #DD615C",
"T  c #DE625E",
"R  c #E76B69",
"E  c #EA6D6A",
"W  c #F47876",
"Q  c #F47976",
"!  c #F47877",
"~  c #F67876",
"^  c #2C3485",
"/  c #2D3586",
"(  c #2E3689",
")  c #2E368B",
"_  c #323983",
"`  c #30388F",
"'  c #313A93",
"]  c #323A95",
"[  c #323B96",
"{  c #383F91",
"}  c #333D9A",
"|  c #343D9C",
" . c #3E4492",
".. c #4C52A5",
"X. c #565CB1",
"o. c #6B70B7",
"O. c #7B7FBA",
"+. c #4550C1",
"@. c #4651C1",
"#. c #4E58C4",
"$. c #4F59C4",
"%. c #535DC6",
"&. c #606ACA",
"*. c #7980CB",
"=. c #7F86D4",
"-. c #FF8482",
";. c #FF8582",
":. c #FF8584",
">. c #878DD0",
",. c #8189D5",
"<. c #838BD6",
"1. c #868DD7",
"2. c #8990D8",
"3. c #8A91D8",
"4. c #8B92D8",
"5. c #9198DA",
"6. c #9399DB",
"7. c #989EDD",
"8. c #F3F3F3",
/* pixels */
"                                                                                ",
"                                                                                ",
"                                    D                                   *       ",
"                                    D :.N W                       B - m *       ",
"                                    D -.N W k E g T a K < J , H ; B = b *       ",
"                r                   D -.N W j E g T a K < J , H ; C = m *       ",
"               .O                   D :.N W j E g T a K < J , H : B = b *       ",
"              O & _                 S -.N W j E f T a K < J , H ; C = m *       ",
"            ..X 7 q                 Z -.N W k E g T 1 K < J , H : B = m *       ",
"            @ + e y {               Z -.N ! k E f T 1 K < J , H : B = b *       ",
"          X.X 6 9 ' }               D -.N ~ k E f T a K < J , H ; B = b *       ",
"          $ O ^ w ) $.*.            Z -.N W x E g T 1 K < J , H : B = b *       ",
"        o.O & 9 ] | %.2.            D -.N W k E g T 1 K < J , H ; B = b *       ",
"        5 X ^ w ` +.=.=.1.          D -.N W k E g T 1 K < J , H ; B = m *       ",
"      O.O & 9 t ) #.=.2.6.          C -.N W k E g L 1 K < J , H ; B = m *       ",
"      # X 6 9 ` X.&.5.2.7.          C -.N W k E g L a K < J , H ; C = b *       ",
"      + + e y ^ $.,.2.6.7.          D -.N W k E g L a K < J , H ; B = b *       ",
"          q ] | &.6.2.              C -.N W x E f L 1 K < J , H ; B = b *       ",
"                                    C -.N W k E s P a K < J , H ; B = m *       ",
"                                    C -.N W k E s P 1 K < J , G ; B = b *       ",
"                                    C -.N W k E s L 1 K < J , G ; B = m *       ",
"                                    C -.N W k E s T 1 K < J , G ; B = m *       ",
"                                    D -.N W h R s L 1 K < J , G ; B = m *       ",
"                                    C -.N W h R s U 1 K < J , G : B = b *       ",
"                                      -.N W k R s L 1 K < J > G : B = m         ",
"                                            k R s L a K < J > G :               ",
"                                                                                ",
"        .     .     .                                                           ",
"          8.    8.    8.                                                        ",
"                                                                                ",
"                                                                                ",
"                                                                                "
};
