/* XPM */
static char *side_scale[] = {
/* columns rows colors chars-per-pixel */
"40 32 6 1 ",
"  c None",
". c black",
"X c #3E3E3E",
"o c gray43",
"O c blue",
"+ c #F8F8F8",
/* pixels */
"                                        ",
"                                        ",
"                                        ",
"     OOO OOO OOO                        ",
"                                        ",
"    O      OOOOO O                      ",
"    O       OOOO O                      ",
"    O        OOO O                      ",
"            O OO                        ",
"    ........   O O                      ",
"    .      .     O                      ",
"    .      .     O     +++++++          ",
"    .      .        +++++++++++++++o    ",
"    .      .     O++++++++++++++++oo    ",
"    .      .     OXXXXX+++++++++oooo    ",
"    .      .     OXXXXXXXXX++++ooooo    ",
"    ........ OOO XXXXXXXXXXXXXooooo     ",
"                 XXXXXXXXXXXXXooooo     ",
"                 XXXXXXXXXXXXXooooo     ",
"                  XXXXXXXXXXXXooooo     ",
"                  XXXXXXXXXXXXooooo     ",
"                  XXXXXXXXXXXXooooo     ",
"                  XXXXXXXXXXXXooooo     ",
"                  XXXXXXXXXXXXooooo     ",
"                  XXXXXXXXXXXXooooo     ",
"                   XXXXXXXXXXXoooo      ",
"                    XXXXXXXXXXooo       ",
"                       XXXXXXXoo        ",
"                          XXXXo         ",
"                             X          ",
"                                        ",
"                                        "
};
