/* XPM */
static char *side_find[] = {
/* columns rows colors chars-per-pixel */
"40 32 6 1 ",
"  c None",
". c black",
"X c #800000",
"o c red",
"O c #808000",
"+ c #808080",
/* pixels */
"                                        ",
"                                        ",
"                                        ",
"                                        ",
"                                        ",
"                 oooX+                  ",
"                ooXXooX+                ",
"               oXXooXXoX+               ",
"               XoooooXXoX               ",
"              oXoooooXXoX+              ",
"              o.ooooXXXoo.              ",
"              oXoooXXX.Xo+              ",
"              +XooXoXX+Xo.              ",
"               .XXoXXX.OXX              ",
"               XXoXXX..oX+              ",
"               o.XXX+.+oX               ",
"                X.X+.+oX+               ",
"                 oooooXX.+              ",
"                   oXXoX.+              ",
"                      XoX.+             ",
"                       XoX.             ",
"                       ooX.+            ",
"                        XoX..           ",
"                         XoX+           ",
"                         oX+            ",
"                                        ",
"                                        ",
"                                        ",
"                                        ",
"                                        ",
"                                        ",
"                                        "
};
