/* XPM */
static char * side_vertices_xpm[] = {
"19 16 33 1",
" 	c None",
".	c #00FBFF",
"+	c #808080",
"@	c #00F1FF",
"#	c #00EFFF",
"$	c #00EDFF",
"%	c #00EAFF",
"&	c #000000",
"*	c #00EBFF",
"=	c #00E1FF",
"-	c #007280",
";	c #00D8FF",
">	c #006D80",
",	c #006A80",
"'	c #00D4FF",
")	c #006780",
"!	c #00CEFF",
"~	c #00CCFF",
"{	c #00CDFF",
"]	c #00C6FF",
"^	c #00C4FF",
"/	c #00C3FF",
"(	c #006280",
"_	c #006080",
":	c #00BEFF",
"<	c #00BBFF",
"[	c #005E80",
"}	c #00BCFF",
"|	c #00B7FF",
"1	c #00B6FF",
"2	c #005B80",
"3	c #005980",
"4	c #005880",
"    ..             ",
"   +@@    +@#      ",
"$%&      +&$*      ",
"==    +&-+ +       ",
" +      +;>+       ",
" &      &,'&       ",
" &      & )!!&     ",
" ++     + )~{))    ",
" ]]     +  ]]]]&   ",
" ^/     &  (//(    ",
"   &&+  &+& _:_&   ",
"    +&&+<&  [[}[   ",
"        |      12& ",
"               333&",
"                4&&",
"                 & "};
