/* XPM */
static char * side_edges_xpm[] = {
"19 16 26 1",
" 	c None",
".	c #FFFFFF",
"+	c #C0C0C0",
"@	c #000000",
"#	c #808080",
"$	c #00D8FF",
"%	c #006A80",
"&	c #006B80",
"*	c #00CEFF",
"=	c #006780",
"-	c #00CBFF",
";	c #00CCFF",
">	c #006480",
",	c #00C6FF",
"'	c #00C7FF",
")	c #006380",
"!	c #006280",
"~	c #00C4FF",
"{	c #00C3FF",
"]	c #006080",
"^	c #00BEFF",
"/	c #005E80",
"(	c #005B80",
"_	c #00B6FF",
":	c #005980",
"<	c #005880",
"    .     .        ",
" .....+...@@       ",
"#........@@@       ",
"######..+@@@       ",
" #####.#@$@@       ",
" ####.##@%&@       ",
" #######@@**=@     ",
" ##.####@@-;;=@    ",
" #######@@>,',)@   ",
" #######@@ !~{@    ",
" #######@@  ]^]@   ",
"    ####@    ///   ",
"       #      (_(@ ",
"               :::@",
"                <@@",
"                 @ "};
