/* XPM */
static char *side_entities[] = {
/* columns rows colors chars-per-pixel */
"40 32 7 1 ",
"  c None",
". c black",
"X c #0C0C0C",
"o c #808080",
"O c #C0C0C0",
"+ c #F3F3F3",
"@ c white",
/* pixels */
"                                        ",
"                                        ",
"                                        ",
"                                        ",
"                        @               ",
"              @        @                ",
"               @  @O@O@ooo              ",
"                @@O@O@Oo.oo             ",
"                @@@@@OOoo.oo            ",
"                @@@@OOOOo..o            ",
"                O@@@OOOOo..o            ",
"                @@@@OOOOo..o            ",
"               @@OOO@OOOo..o            ",
"               @OOOOO@Oo...o            ",
"              @ OOOOOO@O..oo            ",
"             @   OOOooo@o.o             ",
"            @     Oooo.oOo              ",
"                   ooo..o o             ",
"                   Oo...o  o            ",
"                   Ooo..o               ",
"                   OOoooo               ",
"                   OOOo..               ",
"                  @@@OOO..              ",
"                   OOoo..               ",
"                  O@@Ooo..              ",
"                   OOoo.o               ",
"                    @  o                ",
"    X  X  X                             ",
"     +  +  +                            ",
"                                        ",
"                                        ",
"                                        "
};
