/* XPM */
static char *side_surface[] = {
/* columns rows colors chars-per-pixel */
"40 32 10 1 ",
"  c None",
". c #0C0C0C",
"X c #800000",
"o c red",
"O c #FF0100",
"+ c #FF0001",
"@ c #008000",
"# c yellow",
"$ c #C3C3C3",
"% c #F3F3F3",
/* pixels */
"                                        ",
"                                        ",
"        $$$$                            ",
"       $oooo$$$                         ",
"      $o$$$$ooo$                        ",
"     $o$    $$o$                        ",
"    $oo$     $o$                        ",
"    $oo$     $o$                        ",
"    $oo$     $o$                        ",
"     $oo$$$$  $                         ",
"     $oooooo$$                          ",
"      $ooooooo$          #######        ",
"       $$$ooooo$      ###############@  ",
"          $$$ooo$  X################@@  ",
"     $       $oo$  XXXXXX#########@@@@  ",
"    $o$      $oo$  XXXXXXXXXX####@@@@@  ",
"    $o$      $oo$  XXXXXXXXXXXXX@@@@@   ",
"    $oo$     $oo$  XXXXXXXXXXXXX@@@@@   ",
"    $oo$$   $$o$   XXXXXXXXXXXXX@@@@@   ",
"    $o$oo$$$oo$     XXXXXXXXXXXX@@@@@   ",
"     $ $$ooo$$      XXXXXXXXXXXX@@@@@   ",
"         $$$        XXXXXXXXXXXX@@@@@   ",
"                    XXXXXXXXXXXX@@@@@   ",
"                    XXXXXXXXXXXX@@@@@   ",
"                    XXXXXXXXXXXX@@@@@   ",
"                     XXXXXXXXXXX@@@@    ",
"                      XXXXXXXXXX@@@     ",
"    .  .  .              XXXXXXX@@      ",
"     %  %  %                XXXX@       ",
"                               X        ",
"                                        ",
"                                        "
};
