/* XPM */
static char * side_faces_xpm[] = {
"17 16 39 1",
" 	c None",
".	c #00FCFF",
"+	c #00FBFF",
"@	c #00F1FF",
"#	c #00F2FF",
"$	c #00EFFF",
"%	c #808080",
"&	c #007680",
"*	c #007780",
"=	c #00EDFF",
"-	c #00ECFF",
";	c #007180",
">	c #007280",
",	c #006C80",
"'	c #006D80",
")	c #00D8FF",
"!	c #000000",
"~	c #006A80",
"{	c #006B80",
"]	c #006780",
"^	c #006880",
"/	c #00CEFF",
"(	c #006680",
"_	c #00CBFF",
":	c #00CCFF",
"<	c #006480",
"[	c #006380",
"}	c #00C6FF",
"|	c #00C7FF",
"1	c #006280",
"2	c #00C4FF",
"3	c #00C3FF",
"4	c #006080",
"5	c #00BEFF",
"6	c #005E80",
"7	c #005B80",
"8	c #00B6FF",
"9	c #005980",
"0	c #005880",
"    .++..+.+     ",
"@@@#$@@@@@%%     ",
"&&*&===--%%%     ",
";;>;>;>;%%%%     ",
",,,,,',)!%%%     ",
"~~{{~~~~{!%%     ",
" ]]]^]]]//]!     ",
" (((](((_::]!    ",
" <[[[[<<<}|}[!   ",
" 11111111123!    ",
"   444444%454!   ",
"     6666  666   ",
"            787! ",
"             999!",
"              0!!",
"               ! "};
