/* XPM */
static char *side_faces[] = {
/* columns rows colors chars-per-pixel */
"40 32 7 1 ",
"  c None",
". c black",
"X c #800000",
"o c red",
"O c #008000",
"+ c green",
"@ c #808080",
/* pixels */
"                                        ",
"                                        ",
"                                        ",
"                                        ",
"                                        ",
"               ++++++++++++@            ",
"           +++++++++++++++@@            ",
"         +++++++++++++++@@@@            ",
"         OOOOOO++++++++@@@@@            ",
"         OOOOOOOOOOOOO@@@@@@            ",
"         OOOOOOOOOOOOO@@@@@@            ",
"         OOOOOOOOOOX.O@@@@@@            ",
"         OOOOOOOOOOXoX.@@@@@            ",
"         OOOOOOOOOOOXoX.@@@             ",
"         OOOOOOOOOOOXooXX.@             ",
"          OOOOOOOOOOOXoooX.             ",
"          OOOOOOOOOOOXooooXX.           ",
"          OOOOOOOOOOOOXooooXX.          ",
"          OOOOOOOOOOOOXoooooX..         ",
"          OOOOOOOOOOOOOXoooX.           ",
"           OOOOOOOOOOOOXoooX.           ",
"             OOOOOOOOOO@XXoXX.          ",
"                 OOOOOO X XoXX.         ",
"                    OOO    XoXX.        ",
"                            XoXX.       ",
"                             XoXX.      ",
"                             XXXX..     ",
"                              XX...     ",
"                               X...     ",
"                                .       ",
"                                        ",
"                                        "
};
