/* XPM */
static char *side_vertices[] = {
/* columns rows colors chars-per-pixel */
"40 32 6 1 ",
"  c None",
". c black",
"X c #800000",
"o c red",
"O c green",
"+ c #808080",
/* pixels */
"                                        ",
"                                        ",
"                                        ",
"                                        ",
"                                        ",
"           OOO                          ",
"           OOO+.+.+.+.OOO               ",
"         .+OOO       +OOO               ",
"     OOO.+          +.OOO               ",
"     OOO+.+.+.+  XXX.+ .                ",
"     OOO      .+.XXX+  +                ",
"      +.         XXX.  .                ",
"      ++          +XoX.+                ",
"       .          . XoX.                ",
"       +          + XooXX.              ",
"       .          .  XoooX.             ",
"       ++         +  XooooXX.           ",
"       .+         .   XooooXX.          ",
"      OOO         +   XoooooX..         ",
"      OOO         .   OXoooX.           ",
"      OOO.+       +  +.XoooX.           ",
"         +.+.+    . +.  XXoXX.          ",
"            +.+.+OOO.   X XoXX.         ",
"               +.OOO       XoXX.        ",
"                 OOO        XoXX.       ",
"                             XoXX.      ",
"                             XXXX..     ",
"                              XX...     ",
"                               X...     ",
"                                .       ",
"                                        ",
"                                        "
};
