/* XPM */
static char *side_transform[] = {
/* columns rows colors chars-per-pixel */
"40 32 6 1 ",
"  c None",
". c black",
"X c #3E3E3E",
"o c gray43",
"O c blue",
"+ c #F8F8F8",
/* pixels */
"                                        ",
"                                        ",
"                                        ",
"    .......                             ",
"    .     .                             ",
"    .     .                             ",
"    .     .   O                         ",
"    .     .   OO                        ",
"    .     .   OOO                       ",
"    .     .OOOOOOO                      ",
"    .     .   OOO                       ",
"    .     .   OO       +++++++          ",
"    .     .   O     +++++++++++++++o    ",
"    .     .      X++++++++++++++++oo    ",
"    .     .      XXXXXX+++++++++oooo    ",
"    .     .      XXXXXXXXXX++++ooooo    ",
"    .......      XXXXXXXXXXXXXooooo     ",
"                 XXXXXXXXXXXXXooooo     ",
"                 XXXXXXXXXXXXXooooo     ",
"                  XXXXXXXXXXXXooooo     ",
"                  XXXXXXXXXXXXooooo     ",
"                  XXXXXXXXXXXXooooo     ",
"                  XXXXXXXXXXXXooooo     ",
"                  XXXXXXXXXXXXooooo     ",
"                  XXXXXXXXXXXXooooo     ",
"                   XXXXXXXXXXXoooo      ",
"                    XXXXXXXXXXooo       ",
"                       XXXXXXXoo        ",
"                          XXXXo         ",
"                             X          ",
"                                        ",
"                                        "
};
