/* XPM */
static char *side_clipper[] = {
/* columns rows colors chars-per-pixel */
"40 32 7 1 ",
"  c None",
". c black",
"X c #800000",
"o c red",
"O c #008000",
"+ c green",
"@ c #808080",
/* pixels */
"                                        ",
"                                        ",
"                                        ",
"                                        ",
"                                        ",
"                                        ",
"                                        ",
"                +++++X                  ",
"             ++++++XoXX                 ",
"          +++++++oXoXXXX                ",
"         ++++++XoXoXoXXXX               ",
"         OOOOO@oXoXoXoXXXX              ",
"         OOOOOO@oXoXoXXXXXX             ",
"         OOOOOOO@oXoXoXXXXXX            ",
"         OOOOOOOO@oXoXXXXXX@            ",
"         OOOOOOOOO@oXoXXXX@@            ",
"          OOOOOOOOO@oXoXX@@@            ",
"          OOOOOOOOOO@oXX@@@.            ",
"          OOOOOOOOOOO@o@@@@             ",
"          OOOOOOOOOOOO@@@@@             ",
"          OOOOOOOOOOOO@@@@              ",
"           OOOOOOOOOOO@@@               ",
"            OOOOOOOOOO@@@               ",
"               OOOOOOO@@                ",
"                  OOOO@                 ",
"                    OO                  ",
"                                        ",
"                                        ",
"                                        ",
"                                        ",
"                                        ",
"                                        "
};
