/* XPM */
static char *side_textures[] = {
/* columns rows colors chars-per-pixel */
"40 32 110 2 ",
"   c None",
".  c #0C0C0C",
"X  c #240C04",
"o  c #291207",
"O  c #3C1D09",
"+  c #381D14",
"@  c #372116",
"#  c #3E271F",
"$  c #452B21",
"%  c #4E372F",
"&  c #533C33",
"*  c #5A3F34",
"=  c #5B402B",
"-  c #62463A",
";  c #63483D",
":  c #6F543F",
">  c #634B44",
",  c #694F42",
"<  c #6A5248",
"1  c #725647",
"2  c #72574B",
"3  c #775D50",
"4  c #7C6251",
"5  c #FF0000",
"6  c #9E5113",
"7  c #AC4F0C",
"8  c #A5540F",
"9  c #B2530F",
"0  c #A05116",
"q  c #AD5514",
"w  c #AC5B1D",
"e  c #B45514",
"r  c #B35A15",
"t  c #B95914",
"y  c #B45C1B",
"u  c #BB5E1B",
"i  c #B36317",
"p  c #B6641F",
"a  c #BB631C",
"s  c #BB6B1C",
"d  c #AD5F22",
"f  c #B55F20",
"g  c #B85D22",
"h  c #B46425",
"j  c #BB6621",
"k  c #BB6A22",
"l  c #B76729",
"z  c #B46C2B",
"x  c #BC6E2B",
"c  c #BF702B",
"v  c #BC6932",
"b  c #BE7130",
"n  c #C16A1E",
"m  c #C26724",
"M  c #C26C25",
"N  c #C36C29",
"B  c #C96D28",
"V  c #C77326",
"C  c #C4732B",
"Z  c #C9732C",
"A  c #CA792E",
"S  c #C37432",
"D  c #CB7431",
"F  c #C77C33",
"G  c #C97A33",
"H  c #C27738",
"J  c #CC7D3B",
"K  c #D27737",
"L  c #D17A3E",
"P  c #856856",
"I  c #8E7362",
"U  c #927565",
"Y  c #CC7E42",
"T  c #CE823B",
"R  c #D1853E",
"E  c #A28975",
"W  c #A3877B",
"Q  c #AE917F",
"!  c #CE8342",
"~  c #D78941",
"^  c #D18E4D",
"/  c #DD9555",
"(  c #637BB5",
")  c #6681B5",
"_  c #6A82B7",
"`  c #6781B9",
"'  c #6C85BB",
"]  c #6F88BD",
"[  c #728CBD",
"{  c #728CC1",
"}  c #788EC0",
"|  c #7791C4",
" . c #7B94C3",
".. c #7F9AC5",
"X. c #7C95C9",
"o. c #7F9AC8",
"O. c #B29681",
"+. c #B29583",
"@. c #B59888",
"#. c #B99C8A",
"$. c #BAA393",
"%. c #C8AD98",
"&. c #839ECE",
"*. c #84A0C9",
"=. c #88A4C8",
"-. c #87A2D1",
";. c #8FA9D6",
":. c #9CB5DD",
">. c #C3C3C3",
",. c #F3F3F3",
/* pixels */
"                                                                                ",
"                                                                                ",
"                                                                                ",
"        >.>.>.>.>.>.>.>.>.>.>.>.>.>.                                            ",
"      >.5 5 5 5 5 5 5 5 5 5 5 5 5 5 >.                                          ",
"      >.5 >.>.>.>.>.5 5 >.>.>.>.>.5 >.                                          ",
"      >.5 >.      >.5 5 >.      >.5 >.                                          ",
"      >.5 >.      >.5 5 >.      >.5 >.                                          ",
"      >.5 >.      >.5 5 >.      >.5 >.                                          ",
"        >.        >.5 5 >.        >.                                            ",
"                  >.5 5 >.                                                      ",
"                  >.5 5 >.                      O +.1 W - + $                   ",
"                  >.5 5 >.                E : O.#.@.U < * > X & X 3 4 * '       ",
"                  >.5 5 >.          k o $.I %.Q I U - > $ * # % o ; I ' [       ",
"                  >.5 5 >.          C F x x k v P 1 2 - < > % X @ ' _ ) '       ",
"                  >.5 5 >.          C F F k h S 6 x J q & & * X { ] ] | [       ",
"                  >.5 5 >.          h G F j r S w w Y e u p N { } X.|  .        ",
"                  >.5 5 >.          8 T C D a S c d S q N N j [ [ X.&.&.        ",
"              >.>.>.5 5 >.>.>.      p R S Z N G c b z q j j k { { ' ' '         ",
"            >.5 5 5 5 5 5 5 5 >.      R R j B J z / ! S N M x | [ ( ( (         ",
"              >.>.>.>.>.>.>.>.        G C C a x z ^ / g N D G &.;.&.[ '         ",
"                                      ! x j d l h J L w n m V _ [  .:.'         ",
"                                      R m m N Y d x S g t s C ( ( X. .(         ",
"                                      F N 7 C v 6 Y D e u B M ( ( ` ( (         ",
"                                      F M 9 m h f K B r u B V ( ( ( ( (         ",
"                                        n a r u e r a s B k C ' ( ( _           ",
"                                          a i s n 9 n s A A s | ' [             ",
"        .     .     .                           n s s s s A V ..-.              ",
"          ,.    ,.    ,.                              V s G C =.                ",
"                                                            C                   ",
"                                                                                ",
"                                                                                "
};
