/* XPM */
static char *side_rotate[] = {
/* columns rows colors chars-per-pixel */
"40 32 6 1 ",
"  c None",
". c black",
"X c #3E3E3E",
"o c gray43",
"O c blue",
"+ c #F8F8F8",
/* pixels */
"                                        ",
"                                        ",
"                                        ",
"        OOOO                            ",
"      OO    OO                          ",
"     O        O                         ",
"    O ........ O                        ",
"    O .      . O                        ",
"   O  .      .  O                       ",
"   O  .      .OOOOO                     ",
"   O  .      . OOO                      ",
"   O  .      .  O      +++++++          ",
"    O .      .      +++++++++++++++o    ",
"    O ........   X++++++++++++++++oo    ",
"     O           XXXXXX+++++++++oooo    ",
"      OO         XXXXXXXXXX++++ooooo    ",
"        OO       XXXXXXXXXXXXXooooo     ",
"                 XXXXXXXXXXXXXooooo     ",
"                 XXXXXXXXXXXXXooooo     ",
"                  XXXXXXXXXXXXooooo     ",
"                  XXXXXXXXXXXXooooo     ",
"                  XXXXXXXXXXXXooooo     ",
"                  XXXXXXXXXXXXooooo     ",
"                  XXXXXXXXXXXXooooo     ",
"                  XXXXXXXXXXXXooooo     ",
"                   XXXXXXXXXXXoooo      ",
"                    XXXXXXXXXXooo       ",
"                       XXXXXXXoo        ",
"                          XXXXo         ",
"                             X          ",
"                                        ",
"                                        "
};
