/* XPM */
static char *side_resize[] = {
/* columns rows colors chars-per-pixel */
"40 32 5 1 ",
"  c None",
". c black",
"X c #3E3E3E",
"o c gray43",
"O c #F8F8F8",
/* pixels */
"                                        ",
"                                        ",
"   ... ... ...                          ",
"               .                        ",
"  .            .                        ",
"  .            .                        ",
"  .                                     ",
"               .                        ",
"  .            .                        ",
"  .            .                        ",
"  .                                     ",
"               .       OOOOOOO          ",
"  .            .    OOOOOOOOOOOOOOOo    ",
"  .            . XOOOOOOOOOOOOOOOOoo    ",
"  .              XXXXXXOOOOOOOOOoooo    ",
"    ... ... ...  XXXXXXXXXXOOOOooooo    ",
"                 XXXXXXXXXXXXXooooo     ",
"                 XXXXXXXXXXXXXooooo     ",
"                 XXXXXXXXXXXXXooooo     ",
"                  XXXXXXXXXXXXooooo     ",
"                  XXXXXXXXXXXXooooo     ",
"                  XXXXXXXXXXXXooooo     ",
"                  XXXXXXXXXXXXooooo     ",
"                  XXXXXXXXXXXXooooo     ",
"                  XXXXXXXXXXXXooooo     ",
"                   XXXXXXXXXXXoooo      ",
"                    XXXXXXXXXXooo       ",
"                       XXXXXXXoo        ",
"                          XXXXo         ",
"                             X          ",
"                                        ",
"                                        "
};
