/* XPM */
static char *side_edges[] = {
/* columns rows colors chars-per-pixel */
"40 32 7 1 ",
"  c None",
". c black",
"X c #800000",
"o c red",
"O c #808080",
"+ c #C0C0C0",
"@ c white",
/* pixels */
"                                        ",
"                                        ",
"                                        ",
"                                        ",
"                                        ",
"            @+        @                 ",
"          @@@@+@@@@@@@                  ",
"       @@@@@@@@+@@@@@+..                ",
"      O@@@@@@@@@+@@@....                ",
"      OOOOO@@@@@@+@.....                ",
"      OOOOOOOOO@@@+.....                ",
"      OOOOOOOOOO@OOX....                ",
"       OOOOOOOO@OO.XoX..                ",
"       OOOOOOO@OOO..XoX.                ",
"       OOOOOO@OOOO..XooXX.              ",
"       OOOOOOOOOOO...XoooX.             ",
"       OOOO@OOOOOO...XooooXX.           ",
"       OOOOOOOOOOO....XooooXX.          ",
"       OOOOOOOOOOO....XoooooX..         ",
"       OOOOOOOOOOO.... XoooX.           ",
"       OOOOOOOOOOO...  XoooX.           ",
"        OOOOOOOOOO...   XXoXX.          ",
"            OOOOOO..    X XoXX.         ",
"               OOO.        XoXX.        ",
"                 O          XoXX.       ",
"                             XoXX.      ",
"                             XXXX..     ",
"                              XX...     ",
"                               X...     ",
"                                .       ",
"                                        ",
"                                        "
};
