/* XPM */
static char * texture_lock_xpm[] = {
"16 16 18 1",
" 	c None",
".	c #000000",
"+	c #FFFFFF",
"@	c #87FFFF",
"#	c #89FFFF",
"$	c #8CFFFF",
"%	c #8FFFFF",
"&	c #8EFFFF",
"*	c #8BFFFF",
"=	c #85FFFF",
"-	c #FFFF00",
";	c #83FFFF",
">	c #81FFFF",
",	c #7FFFFF",
"'	c #7BFFFF",
")	c #77FFFF",
"!	c #72FFFF",
"~	c #75FFFF",
"                ",
" .............. ",
" .++++++@@@##@. ",
" .++++....$$$$. ",
" .+++......%%%. ",
" .+++..+&..&&&. ",
" .+++..+$..**$. ",
" .++........##. ",
" .=@.------.++. ",
" .;>.--..--.++. ",
" .,,.--..--.++. ",
" .''.------.++. ",
" .))........++. ",
" .!!!~!!++++++. ",
" .............. ",
"                "};
