/* XPM */
static char * texture_browser_xpm[] = {
"16 16 64 1",
" 	c None",
".	c #00CBED",
"+	c #00CBEB",
"@	c #00C9F3",
"#	c #86FFFF",
"$	c #88FFFF",
"%	c #65F2FC",
"&	c #66F2FC",
"*	c #00C9F7",
"=	c #8CFFFF",
"-	c #8AFFFF",
";	c #69F1FD",
">	c #68F1FE",
",	c #69F2FE",
"'	c #69F1FE",
")	c #00C7F7",
"!	c #00C5FD",
"~	c #90FFFF",
"{	c #8EFFFF",
"]	c #6CF1FF",
"^	c #00C5FF",
"/	c #00C1FF",
"(	c #6BF0FF",
"_	c #00BDFF",
":	c #69EFFF",
"<	c #68EFFF",
"[	c #69EEFF",
"}	c #00BBFF",
"|	c #00B7FF",
"1	c #66EDFF",
"2	c #65EDFF",
"3	c #00B3FF",
"4	c #63ECFF",
"5	c #84FFFF",
"6	c #00B5FF",
"7	c #00ADFF",
"8	c #62EBFF",
"9	c #60EBFF",
"0	c #80FFFF",
"a	c #82FFFF",
"b	c #00AFFF",
"c	c #00A9FF",
"d	c #5FEAFF",
"e	c #5DEAFF",
"f	c #7CFFFF",
"g	c #7EFFFF",
"h	c #00A5FF",
"i	c #5CE9FF",
"j	c #5AE9FF",
"k	c #5CE8FF",
"l	c #7AFFFF",
"m	c #00A3FF",
"n	c #009FFF",
"o	c #59E7FF",
"p	c #5AE8FF",
"q	c #76FFFF",
"r	c #78FFFF",
"s	c #009BFF",
"t	c #56E6FF",
"u	c #57E6FF",
"v	c #72FFFF",
"w	c #74FFFF",
"x	c #0095FF",
"y	c #0097FF",
"                ",
" ...+.......... ",
" @##$$#$%%%&&%@ ",
" *==-===;>,,'') ",
" !~{~~~~]]]]]]^ ",
" /{{{{{{((((((/ ",
" _-===--:<<<<[} ",
" |#$##$#111211| ",
" 342444455#5556 ",
" 78999990aaa00b ",
" cddddeeffggggc ",
" hiijiikllllllm ",
" nooooopqqqqrqn ",
" stttuttvwvvwvs ",
" xxxxxxxxyxxxxx ",
"                "};
