/* XPM */
static char * textures_popup_xpm[] = {
"16 15 48 1",
" 	c None",
".	c #007B82",
"+	c #FFFF00",
"@	c #000000",
"#	c #31C6C9",
"$	c #007A84",
"%	c #FFFFFF",
"&	c #37C6CA",
"*	c #007A85",
"=	c #40C6CB",
"-	c #3DC6CB",
";	c #007A86",
">	c #007986",
",	c #007987",
"'	c #45C6CB",
")	c #43C6CB",
"!	c #007988",
"~	c #4AC5CC",
"{	c #4AC6CC",
"]	c #007888",
"^	c #48C5CC",
"/	c #007688",
"(	c #45C4CC",
"_	c #43C4CC",
":	c #007488",
"<	c #3DC4CC",
"[	c #40C4CC",
"}	c #3AC3CC",
"|	c #3DC3CC",
"1	c #007388",
"2	c #007288",
"3	c #37C2CC",
"4	c #34C3CC",
"5	c #34C2CC",
"6	c #007088",
"7	c #31C2CC",
"8	c #2DC2CC",
"9	c #007188",
"0	c #006F88",
"a	c #26C1CC",
"b	c #2AC1CC",
"c	c #006E88",
"d	c #006C88",
"e	c #26C0CC",
"f	c #006D88",
"g	c #006B88",
"h	c #006988",
"i	c #006A88",
" .+  @#..       ",
" $%$@+&&&$$$    ",
"+*+*+=-=---=*@  ",
";+%>,,@'')'',@  ",
"!%++~{~~~{{!!@  ",
"%]%^^]^^^^]]]@  ",
"+/%(%(%_(////@  ",
":%@%<%[<:::::@  ",
"}}%|%}%}1:11:@  ",
"2%3%4%452222@   ",
"67%7%7%8999@    ",
" 000a%bbc0@     ",
"    dddef@   @@@",
"       g@    @gg",
"             @hi"};
