/* XPM */
static char * undo_xpm[] = {
"16 16 15 1",
" 	c None",
".	c #47E0FF",
"+	c #47E1FF",
"@	c #45DEFF",
"#	c #43DBFF",
"$	c #44DCFF",
"%	c #44DBFF",
"&	c #42D9FF",
"*	c #43DAFF",
"=	c #41D6FF",
"-	c #40D7FF",
";	c #40D6FF",
">	c #3FD4FF",
",	c #3ED5FF",
"'	c #3DD1FF",
"                ",
"                ",
"                ",
"                ",
"                ",
"        ..+.    ",
"  @   @@    @   ",
"  #$ #       %  ",
"  &*&        &  ",
"  =--;       -  ",
"  >>>>,     >   ",
"            '   ",
"                ",
"                ",
"                ",
"                "};
