/* XPM */
static char * view_entity_xpm[] = {
"16 15 47 1",
" 	c None",
".	c #00FFFF",
"+	c #86FFFF",
"@	c #88FFFF",
"#	c #11FFFF",
"$	c #8CFFFF",
"%	c #8AFFFF",
"&	c #15FFFF",
"*	c #8EFFFF",
"=	c #00C5FD",
"-	c #00C7FD",
";	c #00C5FF",
">	c #90FFFF",
",	c #19FFFF",
"'	c #00FEFF",
")	c #17FFFF",
"!	c #00FAFF",
"~	c #00BDFF",
"{	c #00F8FF",
"]	c #13FFFF",
"^	c #00F4FF",
"/	c #0FFFFF",
"(	c #00F0FF",
"_	c #00B3FF",
":	c #84FFFF",
"<	c #00B5FF",
"[	c #0DFFFF",
"}	c #00EAFF",
"|	c #80FFFF",
"1	c #82FFFF",
"2	c #00ECFF",
"3	c #09FFFF",
"4	c #00E6FF",
"5	c #7EFFFF",
"6	c #00A9FF",
"7	c #7CFFFF",
"8	c #00ABFF",
"9	c #00E8FF",
"0	c #05FFFF",
"a	c #00E2FF",
"b	c #7AFFFF",
"c	c #78FFFF",
"d	c #03FFFF",
"e	c #00DCFF",
"f	c #76FFFF",
"g	c #01FFFF",
"h	c #00D8FF",
"                ",
"  ............  ",
"  .+@@+@+++@@.# ",
"  .$%$$$$%$$$.& ",
"  .*=-=;=->->., ",
"  .**********') ",
"  !$~~~~~~%~%{] ",
"  ^@++@+@@@+@^/ ",
"  (+_:___<__:([ ",
"  }||||||111|23 ",
"  4566768886590 ",
"  abcbbbbbbbbad ",
"  effffcffffceg ",
"  hhhhhhhhhhhh. ",
"   ............ "};
