/* XPM */
static char *view_clipper[] = {
/* columns rows colors chars-per-pixel */
"16 16 3 1 ",
"  c None",
". c black",
"X c blue",
/* pixels */
"             XXX",
" ............XXX",
" .           XXX",
" .            . ",
" .         X  . ",
" .        X   . ",
" .            . ",
" .      X     . ",
" .     X      . ",
" .            . ",
" .   X        . ",
" .  X         . ",
" .            . ",
"XXX           . ",
"XXX............ ",
"XXX             "
};
