/* XPM */
static char * view_change_xpm[] = {
"16 16 26 1",
" 	c None",
".	c #41E5F6",
"+	c #42E5F6",
"@	c #43E4F9",
"#	c #44E4F9",
"$	c #46E3FB",
"%	c #45E3FC",
"&	c #46E3FC",
"*	c #47E2FF",
"=	c #48E3FE",
"-	c #48E2FE",
";	c #47E1FF",
">	c #47E0FF",
",	c #45DEFF",
"'	c #46DEFF",
")	c #43DBFF",
"!	c #42D9FF",
"~	c #40D7FF",
"{	c #41D7FF",
"]	c #3ED4FF",
"^	c #3FD4FF",
"/	c #3DD2FF",
"(	c #3BCFFF",
"_	c #39CDFF",
":	c #37CAFF",
"<	c #38CAFF",
"                ",
" .   +          ",
"  @ #           ",
"   $     %   &  ",
"   *     =   -  ",
"  ; >     ; >   ",
" ,   '    , ,   ",
"           )    ",
"    !!!!!  !    ",
"        ~  {    ",
"       ]   ^    ",
"      /    /    ",
"     (          ",
"    _           ",
"    :<<:<       ",
"                "};
