/* XPM */
static char * view_cameraupdate_xpm[] = {
"16 15 43 1",
" 	c None",
".	c #D4FFFF",
"+	c #40E6FF",
"@	c #3FE6FF",
"#	c #94FFFF",
"$	c #41E5FF",
"%	c #42E5FF",
"&	c #95FFFF",
"*	c #43E4FF",
"=	c #44E4FF",
"-	c #44E5FF",
";	c #97FFFF",
">	c #45E4FF",
",	c #46E3FF",
"'	c #45E3FF",
")	c #46E4FF",
"!	c #FFFFFF",
"~	c #48E2FF",
"{	c #47E2FF",
"]	c #48E3FF",
"^	c #47E0FF",
"/	c #47E1FF",
"(	c #45DEFF",
"_	c #46DEFF",
":	c #96FCFF",
"<	c #43DBFF",
"[	c #44DCFF",
"}	c #95F8FF",
"|	c #42D9FF",
"1	c #43DAFF",
"2	c #41D7FF",
"3	c #94F6FF",
"4	c #3FD4FF",
"5	c #94F4FF",
"6	c #3DD1FF",
"7	c #3DD2FF",
"8	c #93F1FF",
"9	c #3BD0FF",
"0	c #93F0FF",
"a	c #39CDFF",
"b	c #92EEFF",
"c	c #38CAFF",
"d	c #91ECFF",
".+@#            ",
"$$$$%%$$&       ",
"*=**==*-**      ",
";>,,',),,!      ",
" ~~{~]~~!!      ",
" ^/^^^!!!!      ",
" ((__!!!!:      ",
" <<[!!!!        ",
" }|1!!!}   |    ",
"   !!      23   ",
"           45   ",
"        6777676 ",
"         8898000",
"           ab   ",
"           cd   "};
