/* XPM */
static char * view_cameratoggle_xpm[] = {
"16 15 48 1",
" 	c None",
".	c #CCCCCC",
"+	c #40E6F3",
"@	c #3FE6F4",
"#	c #3FE6F3",
"$	c #3FE5F3",
"%	c #41E5F6",
"&	c #42E5F5",
"*	c #42E5F6",
"=	c #43E4F8",
"-	c #44E4F9",
";	c #43E4F9",
">	c #44E5F9",
",	c #44E4F8",
"'	c #46E4FB",
")	c #45E4FB",
"!	c #46E3FB",
"~	c #45E3FC",
"{	c #46E3FC",
"]	c #46E4FC",
"^	c #48E2FE",
"/	c #47E2FF",
"(	c #48E3FE",
"_	c #48E2FF",
":	c #48E3FF",
"<	c #47E1FF",
"[	c #47E0FF",
"}	c #FFFFFF",
"|	c #45DEFF",
"1	c #46DEFF",
"2	c #FFFF00",
"3	c #43DBFF",
"4	c #44DCFF",
"5	c #44DBFF",
"6	c #42D9FF",
"7	c #43DAFF",
"8	c #41D6FF",
"9	c #40D7FF",
"0	c #40D6FF",
"a	c #3FD4FF",
"b	c #3ED5FF",
"c	c #3DD2FF",
"d	c #3CD2FF",
"e	c #3BCFFF",
"f	c #3BD0FF",
"g	c #39CDFF",
"h	c #3ACDFF",
"i	c #37CAFF",
".+@#$#          ",
"%%%%&*%%        ",
"=-;=--=>;;;-,   ",
"')!!~{'!!~]]{{  ",
"^^^/^(^_^(:(:^_ ",
"<[<[[[[<[[<[[}} ",
" ||111||1||2}}} ",
" 334335355}2}}3 ",
"  6766666}22}}  ",
"  899090}22}}9  ",
"  aaaab}22}}a   ",
"  ccdc222}}c    ",
"  eeee}}}}f     ",
"   gg}}}}h      ",
"    i}}i        "};
