/* XPM */
static char * view_cubicclipping_xpm[] = {
"16 16 20 1",
" 	c None",
".	c #41E5F6",
"+	c #C9FFFF",
"@	c #43E4F8",
"#	c #CAFFFF",
"$	c #46E3FC",
"%	c #48E3FE",
"&	c #47E0FF",
"*	c #47E1FF",
"=	c #45DEFF",
"-	c #44DBFF",
";	c #43D9FF",
">	c #C8FFFF",
",	c #41D7FF",
"'	c #3FD5FF",
")	c #C7FFFF",
"!	c #3DD2FF",
"~	c #3BD0FF",
"{	c #39CDFF",
"]	c #38CAFF",
"                ",
"              . ",
"          +++@  ",
"      ###+##$#  ",
"  #########%##  ",
" &*&&&&*&&*###  ",
"  +###++#+=++   ",
"   +++++++-++   ",
"    ++++++;++   ",
"     >>>>>,>>   ",
"      >>>>'>    ",
"       )))!)    ",
"        ))~)    ",
"         ){)    ",
"          ]     ",
"                "};
