/* XPM */
static char *window4[] = {
/* columns rows colors chars-per-pixel */
"32 32 5 1 ",
"  c #0000C0",
". c black",
"X c white",
"o c #C0C0C0",
"O c #C00000",
/* pixels */
"                                ",
"                              . ",
"                                ",
".XXXXXXXXXXXoXXXXXXXXXXXXXXXXXX.",
".XXXXXXXXXXXoXXXXXXXXXXXXXXXXXX.",
".XXXXXXXXXXXoXXXXXXXXXXXXXXXXXX.",
".XXXXOOOXXXXoXXXXXXXXXXXXXXXXXX.",
".XXXOXXXXXXXoXXXXXXXXXXXXXXXXXX.",
".XXXOXXXXXXXoXXXXXXXXXXXXXXXXXX.",
".XXXOXXXXXXXoXXXOXXXOXXXXXXXXXX.",
".XXXXOOOXXXXoXXXXOXOXXXXXXXXXXX.",
".XXXXXXXXXXXoXXXXXOXXXXXXXXXXXX.",
".XXXXXXXXXXXoXXXXOXOXXXOXXXOXXX.",
".XXXXXXXXXXXoXXXOXXXOXXOXXXOXXX.",
".XXXXXXXXXXXoXXXXXXXXXXXOXOXXXX.",
".ooooooooooooXXXXXXXXXXXXOXXXXX.",
".XXXXXXXXXXXoXXXOOOOOXXXXOXXXXX.",
".XXXXXXXXXXXoXXXXXXOXXXXXOXXXXX.",
".XXXXXXXXXXXoXXXXXOXXXXXXXXXXXX.",
".XXXOOOOOXXXoXXXXOXXXXXXXXXXXXX.",
".XXXXXOXXXXXoXXXOOOOOXXXXXXXXXX.",
".XXXXXOXXXXXoXXXXXXXXXXXXXXXXXX.",
".XXXXXOXXXXXoXXXXXXXXXXXXXXXXXX.",
".XXXXXOXXXXXoXXXXXXXXXXXXXXXXXX.",
".XXXXXXXXXXXoXXXXXXXXXXXXXXXXXX.",
".XXXXXXXXXXXoXXXXXXXXXXXXXXXXXX.",
".XXXXXXXXXXXoXXXXXXXXXXXXXXXXXX.",
".XXXXXXXXXXXoXXXXXXXXXXXXXXXXXX.",
".oooooooooooooooooooooooooooooo.",
".XXXXXXXXXXXXXXXXXXXXXXXXXXXXXX.",
".XXXXXXXXXXXXXXXXXXXXXXXXXXXXXX.",
"................................"
};
