/* XPM */
static char *window1[] = {
/* columns rows colors chars-per-pixel */
"32 32 5 1 ",
"  c #0000C0",
". c black",
"X c white",
"o c #C0C0C0",
"O c #C00000",
/* pixels */
"                                ",
"                              . ",
"                                ",
".XXXXXXXXXXXXXXXXXXoXXXXXXXXXXX.",
".XXXXXXXXXXXXXXXXXXoXXXXXXXXXXX.",
".XXXXXXXXXXXXXXXXXXoXXXXXXXXXXX.",
".XXXXXXXXXXXXXXXXXXoXXXXOOOXXXX.",
".XXXXXXXXXXXXXXXXXXoXXXOXXXXXXX.",
".XXXXXXXXXXXXXXXXXXoXXXOXXXXXXX.",
".XXXOXXXOXXXXXXXXXXoXXXOXXXXXXX.",
".XXXXOXOXXXXXXXXXXXoXXXXOOOXXXX.",
".XXXXXOXXXXXXXXXXXXoXXXXXXXXXXX.",
".XXXXOXOXXXOXXXOXXXoXXXXXXXXXXX.",
".XXXOXXXOXXOXXXOXXXoXXXXXXXXXXX.",
".XXXXXXXXXXXOXOXXXXoXXXXXXXXXXX.",
".XXXXXXXXXXXXOXXXXXoooooooooooo.",
".XXXOOOOOXXXXOXXXXXoXXXXXXXXXXX.",
".XXXXXXOXXXXXOXXXXXoXXXXXXXXXXX.",
".XXXXXOXXXXXXXXXXXXoXXXXXXXXXXX.",
".XXXXOXXXXXXXXXXXXXoXXXOOOOOXXX.",
".XXXOOOOOXXXXXXXXXXoXXXXXOXXXXX.",
".XXXXXXXXXXXXXXXXXXoXXXXXOXXXXX.",
".XXXXXXXXXXXXXXXXXXoXXXXXOXXXXX.",
".XXXXXXXXXXXXXXXXXXoXXXXXOXXXXX.",
".XXXXXXXXXXXXXXXXXXoXXXXXXXXXXX.",
".XXXXXXXXXXXXXXXXXXoXXXXXXXXXXX.",
".XXXXXXXXXXXXXXXXXXoXXXXXXXXXXX.",
".XXXXXXXXXXXXXXXXXXoXXXXXXXXXXX.",
".oooooooooooooooooooooooooooooo.",
".XXXXXXXXXXXXXXXXXXXXXXXXXXXXXX.",
".XXXXXXXXXXXXXXXXXXXXXXXXXXXXXX.",
"................................"
};
